<?xml version="1.0" encoding="UTF-8"?>
<svg width="185px" height="187px" viewBox="0 0 185 187" version="1.1" xmlns="http://www.w3.org/2000/svg" xmlns:xlink="http://www.w3.org/1999/xlink">
    <title>Arrows</title>
    <g id="Site" stroke="none" stroke-width="1" fill="none" fill-rule="evenodd">
        <g id="Careers-(desktop)" transform="translate(-1243, -1699)" fill="#1A1A1C">
            <g id="Positions" transform="translate(0, 1594)">
                <g id="Position" transform="translate(769, 105)">
                    <path d="M474,0 L476.829,0 L570.356214,93.5270472 L476.884,187 L474.054,187 L567.527,93.5261068 L474,0 Z M495.999,0 L498.828,0 L592.356214,93.5270472 L498.883,187 L496.053,187 L589.527,93.5261068 L495.999,0 Z M517.999,0 L520.828,0 L614.356214,93.5270472 L520.883,187 L518.053,187 L611.527,93.5261068 L517.999,0 Z M539.999,0 L542.828,0 L636.356214,93.5270472 L542.883,187 L540.053,187 L633.527,93.5261068 L539.999,0 Z M561.999,0 L564.828,0 L658.356214,93.5270472 L564.883,187 L562.053,187 L655.527,93.5261068 L561.999,0 Z" id="Arrows"></path>
                </g>
            </g>
        </g>
    </g>
</svg>