<?xml version="1.0" encoding="UTF-8"?>
<svg width="269px" height="269px" viewBox="0 0 269 269" version="1.1" xmlns="http://www.w3.org/2000/svg" xmlns:xlink="http://www.w3.org/1999/xlink">
    <title>Client-Logo-SC 2</title>
    <g id="Home" stroke="none" stroke-width="1" fill="none" fill-rule="evenodd">
        <g id="Assets" transform="translate(-673, -1709)">
            <g id="Graphics" transform="translate(318, 1540)">
                <g id="Client-Logo-SC" transform="translate(355, 169)">
                    <circle id="Oval" fill="#F16163" cx="134.5" cy="134.5" r="134.5"></circle>
                    <path d="M134.969703,47.0000146 C186.723356,47.0287947 223.33963,89.5657562 222.997624,135.600421 C222.642118,183.420344 183.245692,222.938727 135.077705,222.999927 C86.2860072,223.061879 47.1091859,183.725977 47.006584,134.571156 C46.4341735,89.3823763 83.2430512,46.9712637 134.969703,47.0000146 Z M134.896802,61.0663516 C93.8614466,61.0250012 60.8299385,93.6774228 60.7848878,134.328447 C60.7381368,175.954801 93.6427426,209.210399 134.901302,209.234683 C175.484849,209.258941 208.896165,175.952104 209.18507,135.692111 C209.483875,94.0306989 174.852138,60.1494517 134.896802,61.0663516 Z M124.797806,95.9967299 C125.407117,96.8500311 126.028916,97.6949049 126.654765,98.5369695 L128.536025,101.060354 C129.787048,102.744484 131.020521,104.439849 132.168942,106.191398 C134.090477,109.120084 135.544004,109.56505 137.647343,106.334326 C140.014386,102.699088 142.747737,99.3047608 145.289383,95.7809888 C147.458423,92.7731977 150.223274,91.2621108 154.075345,91.3636889 C160.967672,91.5443722 167.868099,91.3609922 174.764926,91.4347037 C179.924721,91.4904369 181.739155,93.2289509 182.140562,98.3923555 C182.290865,100.326834 182.296265,102.290079 182.166662,104.227254 C181.829156,109.277395 179.566515,111.441099 174.399519,111.50672 C167.503592,111.593915 160.605865,111.49863 153.709039,111.540879 C147.705028,111.577735 146.253301,112.980052 146.243401,118.975858 C146.2074,141.289785 146.233501,163.602812 146.223601,185.915839 C146.220001,194.829544 144.954577,196.095226 136.145215,196.11197 L135.789943,196.112411 L135.099775,196.112127 C124.159558,196.092833 123.698859,195.29292 123.697986,183.797082 L123.697986,153.247237 C123.697986,142.464675 123.705186,131.683011 123.695286,120.900449 C123.688086,112.238442 122.952772,111.530092 114.085809,111.529193 C107.937796,111.529193 101.789783,111.591219 95.6435695,111.511215 C90.2335699,111.4402 88.0429295,109.278294 87.7396239,103.909935 C87.6550224,102.416827 87.6757228,100.914729 87.7117234,99.4180249 C87.8602262,93.2352433 89.645859,91.4589746 95.8712737,91.420321 C102.468395,91.3789706 109.070017,91.5623506 115.660838,91.3582954 C119.698312,91.2324464 122.547765,92.8460104 124.797806,95.9967299 Z" id="Combined-Shape" fill="#FFFFFF"></path>
                </g>
            </g>
        </g>
    </g>
</svg>