<?xml version="1.0" encoding="UTF-8"?>
<svg width="269px" height="269px" viewBox="0 0 269 269" version="1.1" xmlns="http://www.w3.org/2000/svg" xmlns:xlink="http://www.w3.org/1999/xlink">
    <title>Client-Logo-Voiceitt</title>
    <g id="Home" stroke="none" stroke-width="1" fill="none" fill-rule="evenodd">
        <g id="Assets" transform="translate(-673, -367)">
            <g id="Graphics" transform="translate(318, 198)">
                <g id="Client-Logo-Voiceitt" transform="translate(355, 169)">
                    <circle id="Oval" fill="#06184D" cx="134.5" cy="134.5" r="134.5"></circle>
                    <g id="Group-4" transform="translate(70, 83)">
                        <path d="M101.553463,0 C97.7638777,0 94.692118,3.08728168 94.692118,6.89529781 L94.692118,25.6728168 C94.6735786,34.9777429 94.2390596,41.2943574 83.8859202,41.2943574 L83.8859202,41.2943574 L77.1925896,41.2943574 C73.4030046,41.2943574 70.3312449,44.3816391 70.3312449,48.1896552 L70.3312449,67.8194805 C70.2802614,76.6243171 69.5670709,82.546798 59.6339666,82.5881326 L52.8363514,82.5881326 C49.0467664,82.5881326 45.9744274,85.6754142 45.9744274,89.4834304 L45.9744274,110.105284 C45.9744274,113.9133 49.0467664,117 52.8363514,117 L73.4209647,117 C77.2105497,117 80.2828887,113.9133 80.2828887,110.105284 L80.2828887,89.4834304 L80.2828887,89.4717868 L80.2846268,89.4712047 C80.2846268,82.9409315 80.2846268,75.7248545 94.2969954,75.7062248 L97.7777823,75.7062248 C101.567367,75.7062248 104.639706,72.6189431 104.639706,68.810927 L104.639706,48.1896552 C104.639706,48.0720555 104.636809,47.9556202 104.631016,47.8397671 L104.642024,47.8321988 C104.642024,41.2943574 104.642024,34.4118674 118.708852,34.4118674 L122.138655,34.4118674 C125.92824,34.4118674 129,31.3245858 129,27.5165696 L129,6.89529781 C129,3.08728168 125.92824,0 122.138655,0 L101.553463,0 Z" id="Path" fill="#FFFFFF"></path>
                        <path d="M47.0010509,6.89529781 C47.0010509,3.08728168 50.0733899,0 53.8629749,0 L74.4475883,0 C78.2371733,0 81.3095123,3.08728168 81.3095123,6.89529781 L81.3095123,27.5165696 C81.3095123,31.3245858 78.2371733,34.4118674 74.4475883,34.4118674 L71.0206818,34.4118674 C71.0160469,34.4118674 71.011412,34.4118674 71.0067771,34.4118674 C56.9544328,34.4165249 56.9544328,41.2961039 56.9544328,47.8321988 L56.9440043,47.839185 C56.9497979,47.9550381 56.9526947,48.0714734 56.9526947,48.189073 L56.9526947,68.810927 C56.9526947,72.6189431 53.8809351,75.7062248 50.09135,75.7062248 L29.5061574,75.7062248 C25.7165724,75.7062248 22.6442334,72.6189431 22.6442334,68.810927 L22.6442334,48.189073 C22.6442334,44.3810569 25.7165724,41.2943574 29.5061574,41.2943574 L36.2742253,41.2943574 C46.2386149,41.2640842 46.9500674,35.3351993 47.0010509,26.5175549 L47.0010509,6.89529781 Z" id="Path" fill="#00FFD2"></path>
                        <path d="M6.78935934,0 L27.5188703,0 C31.2685299,0 34.3082296,3.05448366 34.3082296,6.82238021 L34.3082296,27.589429 C34.3082296,31.3573256 31.2685299,34.4118092 27.5188703,34.4118092 L6.78935934,34.4118092 C3.03969971,34.4118092 0,31.3573256 0,27.589429 L0,6.82238021 C0,3.16866234 2.85826677,0.18577533 6.45050183,0.00834941179 L6.78935934,0 Z" id="Rectangle" fill="#00FFD2" fill-rule="nonzero"></path>
                    </g>
                </g>
            </g>
        </g>
    </g>
</svg>