<?xml version="1.0" encoding="UTF-8"?>
<svg width="269px" height="269px" viewBox="0 0 269 269" version="1.1" xmlns="http://www.w3.org/2000/svg" xmlns:xlink="http://www.w3.org/1999/xlink">
    <title>Client-Logo-SC</title>
    <g id="Home" stroke="none" stroke-width="1" fill="none" fill-rule="evenodd">
        <g id="Assets" transform="translate(-673, -1038)">
            <g id="Graphics" transform="translate(318, 869)">
                <g id="Client-Logo-SC" transform="translate(355, 169)">
                    <circle id="Oval" fill="#0159C2" cx="134.5" cy="134.5" r="134.5"></circle>
                    <path d="M144.124293,115.081182 C142.615161,115.904574 141.164028,116.696566 139.774373,117.454832 C139.444939,117.380401 139.361421,117.165249 139.241943,116.997779 C136.919666,113.743751 131.982797,114.462475 130.291549,117.77 C129.11765,120.068056 129.390245,122.658021 131.036255,124.606018 C132.743743,126.627284 136.040402,127.184353 138.279161,125.828314 C138.87075,125.470115 139.344021,124.996781 139.663015,124.379237 C139.776693,124.15827 139.904291,123.934977 139.860212,123.670979 C139.714054,123.405819 139.460019,123.466294 139.237303,123.465131 C138.194482,123.459316 137.150502,123.465131 136.107681,123.461642 C135.898885,123.461642 135.681969,123.497695 135.487093,123.3907 C135.318896,122.990634 135.280616,120.193658 135.431414,119.43423 C135.860606,119.274901 144.916558,119.253967 145.459428,119.41097 C145.537147,119.480749 145.556866,119.576114 145.562666,119.672642 C145.698384,122.178871 145.321391,124.575781 144.019895,126.765679 C142.499163,129.324243 140.222125,130.773321 137.316379,131.255959 C134.504591,131.723478 131.82968,131.283871 129.398365,129.787111 C125.86739,127.613494 124.089143,124.396681 124.170342,120.247156 C124.27474,114.954417 127.935632,110.896767 133.198455,110.168739 C136.607632,109.696568 139.682735,110.497863 142.311246,112.783126 C143.026953,113.405323 143.644062,114.117069 144.124293,115.082345 L144.124293,115.081182 Z M87.4442608,110.438551 C88.0486097,110.439714 88.0578895,110.452507 88.2817654,111.025858 C90.7745593,117.422268 93.2673532,123.818678 95.7578271,130.216252 C95.8401856,130.427915 95.9550235,130.6326 95.9538722,130.889619 C95.7276677,131.046622 95.5281514,131.014058 95.3390749,131.014058 C93.9865399,131.017547 92.6340049,131.01871 91.2814699,131.014058 C90.6991607,131.012895 90.6771211,130.994288 90.4822447,130.46513 C90.1748504,129.630108 89.8546963,128.799737 89.5716615,127.956574 C89.438264,127.557671 89.1981484,127.421602 88.7967958,127.422765 C86.3817205,127.432069 83.9666451,127.425091 81.5515698,127.42858 C81.0121798,127.42858 80.9599807,127.478588 80.7581445,128.006583 C80.4345105,128.855561 80.1073965,129.704539 79.7930423,130.557006 C79.6898042,130.838448 79.5459669,131.017547 79.214213,131.015221 C77.8070562,131.007717 76.3998993,131.011083 74.993651,131.009834 C74.9147349,131.020936 74.8373672,131.011218 74.7645353,131.011732 C73.1220057,131.016384 71.480636,131.003592 69.8381064,131.023362 C69.4309539,131.028014 69.210558,130.846589 69.0006019,130.53142 C67.5053895,128.298491 65.9974174,126.074867 64.4929252,123.847753 C64.3850472,123.687261 64.2783292,123.525607 64.1588514,123.374419 C63.9535352,123.112747 63.6716604,123.060413 63.3758659,123.159267 C63.1557277,123.232535 63.129263,123.411333 63.1267346,123.59443 L63.1264705,123.750062 C63.100951,125.915538 63.0800713,128.082177 63.0545518,130.247652 C63.0522319,130.458152 63.0754314,130.673304 62.9942329,130.872174 C62.5894004,131.045459 58.8345499,131.088489 58.0759239,130.907064 C58.0991235,126.394687 58.1357272,121.87249 58.1771427,117.344262 L58.2418008,110.549035 C58.5201957,110.409477 58.717392,110.443203 58.9076285,110.443203 C61.4967006,110.44204 64.0846128,110.440877 66.6736849,110.443203 C68.0830588,110.444366 69.426314,110.711852 70.7104103,111.329397 C72.9514888,112.40632 74.3005439,114.584588 74.2077456,117.076862 C74.1126274,119.620307 72.6243749,121.681114 70.2510588,122.562656 C70.0063033,122.653369 69.7093488,122.662673 69.5225922,123.045294 C71.2138836,125.324048 72.9270192,127.632003 74.6329745,129.930359 L74.4675808,130.330224 C75.9001543,126.841273 77.3396877,123.355811 78.7757411,119.869186 L82.3739946,111.123549 C82.6558694,110.438551 82.6593493,110.438551 83.3866559,110.438551 C84.7391909,110.438551 86.0917259,110.436225 87.4442608,110.438551 Z M108.931704,110.57462 C108.956063,111.981831 108.958383,113.416952 108.918944,114.785784 C108.642869,115.031174 108.400433,114.96721 108.175398,114.968373 C107.832222,114.969446 107.550821,114.970086 107.302669,114.97045 L104.872939,114.970699 C104.041234,114.970699 104.014554,114.996284 104.009915,115.805721 C103.984395,120.485567 103.961195,125.166576 103.933356,129.846423 C103.931036,130.190666 103.982075,130.541887 103.857957,130.90939 C103.309287,131.058252 99.4256793,131.0536 98.9350084,130.912879 C98.8016108,130.725638 98.8549699,130.506997 98.8561298,130.299986 C98.8839693,125.503842 98.9152887,120.707697 98.9454482,115.911552 C98.9454482,115.833632 98.9477681,115.756876 98.9466082,115.678956 C98.9408083,115.035826 98.8886092,114.974188 98.2552609,114.971862 C97.9029844,114.970788 97.6125436,114.97021 97.355399,114.969913 L95.1695258,114.969041 C95.0647845,114.968861 94.9542297,114.968641 94.8368041,114.968373 C94.6094484,114.968373 94.3704928,115.018381 94.1245773,114.838118 L94.1245773,110.57462 C94.6500476,110.39901 108.312275,110.388543 108.931704,110.57462 Z M85.3493396,116.825658 C84.8969479,117.265265 82.8240663,122.49404 82.839146,123.058087 C83.3518565,123.205786 83.8924065,123.11391 84.4225167,123.129029 C84.9433471,123.144148 85.4664974,123.147637 85.9873278,123.129029 C86.5127981,123.109258 87.054508,123.231372 87.6611768,122.987145 C86.9060308,120.920523 86.1601646,118.908561 85.3493396,116.826821 Z M63.7145796,114.682279 C63.2900275,114.685768 63.1856294,114.781132 63.1786695,115.18934 L63.1642334,116.405519 L63.1508064,118.837619 C63.1485101,119.174885 63.316707,119.330724 63.6496208,119.328424 C64.1507316,119.326072 64.6518423,119.328424 65.152953,119.328424 L65.154113,119.303976 C65.6552237,119.303976 66.1563345,119.319095 66.6574452,119.299324 C67.1724757,119.279553 67.6364671,119.088824 68.0482595,118.785285 C69.4309539,117.763022 69.2209978,115.70803 67.6654666,114.980002 C67.2733938,114.796251 66.8581215,114.709027 66.4324094,114.699723 C65.5264661,114.67879 64.6205229,114.674138 63.7145796,114.682279 Z M234.227947,123.037153 C236.153511,125.629444 238.084875,128.228712 240,130.807047 C239.900242,131.048948 239.727405,131.012895 239.582408,131.012895 C237.881879,131.016384 236.181351,131.005917 234.480822,131.022199 C234.085269,131.025688 233.898513,130.803558 233.707116,130.51979 C232.196824,128.272906 230.679572,126.030673 229.16348,123.787278 C229.055602,123.626786 228.950044,123.462805 228.821287,123.320921 C228.61597,123.09414 228.346855,123.068554 228.074261,123.165082 C227.821385,123.254631 227.836465,123.494206 227.832985,123.704706 C227.817905,124.845593 227.806305,125.987643 227.795866,127.12853 C227.785426,128.231038 227.778466,129.333547 227.766866,130.436055 C227.765706,130.588406 227.785426,130.746572 227.693788,130.88613 C227.266915,131.051274 223.463346,131.076859 222.882197,130.919857 C222.761559,130.501183 222.863637,111.306137 222.991235,110.581598 C223.153631,110.393195 223.377507,110.44204 223.583984,110.44204 C226.192775,110.439714 228.801567,110.438551 231.409199,110.443203 C232.798853,110.445529 234.132828,110.690919 235.391405,111.317767 C237.798361,112.516803 239.003578,114.602033 238.91542,117.103611 C238.826102,119.643567 237.31697,121.698559 234.935534,122.57196 C234.705858,122.656858 234.437903,122.678954 234.224467,123.037153 L234.227947,123.037153 Z M229.847868,119.328398 C229.847868,119.328398 229.847868,119.317932 229.847868,119.31328 C230.310699,119.31328 230.773531,119.316769 231.235202,119.312117 C231.586676,119.308628 231.921909,119.22373 232.244383,119.084172 C233.178166,118.680617 233.725676,117.824661 233.678117,116.844265 C233.632878,115.919693 233.037809,115.183525 232.076187,114.857889 C231.818671,114.770665 231.551876,114.728798 231.282761,114.709027 C230.319979,114.640411 229.356037,114.689257 228.392095,114.677627 C228.058021,114.674138 227.892144,114.829978 227.890984,115.16608 C227.884024,116.382561 227.866624,117.597879 227.872424,118.81436 C227.874744,119.224893 227.977982,119.312117 228.402534,119.324909 C228.883926,119.338865 229.366477,119.328398 229.847868,119.328398 Z M200.708047,130.888456 C200.667447,130.67563 200.783445,130.530257 200.848404,130.374417 C203.488515,123.95591 206.132106,117.537404 208.775697,111.121223 C209.056412,110.441006 209.059892,110.44204 209.790679,110.44204 C211.123494,110.44204 212.456309,110.439714 213.789125,110.44204 C214.447992,110.44204 214.451472,110.445529 214.681148,111.035162 C217.187862,117.465299 219.693415,123.895435 222.197809,130.326735 C222.266248,130.502346 222.318447,130.686097 222.367166,130.834959 C222.245368,131.045459 222.076011,131.011732 221.928694,131.012895 C220.479881,131.016384 219.031068,131.008243 217.583414,131.0211 C217.216861,131.024525 217.017345,130.88613 216.899027,130.540724 C216.610192,129.699887 216.300478,128.866028 215.989604,128.033331 C215.777328,127.464632 215.735569,127.430906 215.155579,127.430906 C212.760224,127.426254 210.366028,127.426254 207.970672,127.430906 C207.418522,127.430906 207.359364,127.479751 207.163327,127.991464 C206.838533,128.840442 206.511419,129.688257 206.200545,130.541887 C206.089187,130.846589 205.93143,131.024525 205.575317,131.0211 C204.068504,131.009406 202.562852,131.015221 201.05604,131.014058 C200.940042,131.014058 200.822884,131.010569 200.709207,130.889619 L200.708047,130.888456 Z M214.05824,122.9697 C213.671967,121.929993 213.310054,120.91936 212.921461,119.919194 C212.529388,118.908561 212.230113,117.857224 211.696523,116.872177 C211.290531,117.273406 209.219969,122.504507 209.232729,123.001101 C209.6944,123.177874 213.414452,123.189504 214.05824,122.9697 Z M122.459373,118.581763 L122.459373,122.587079 C122.185618,122.785949 121.946663,122.731289 121.720467,122.731289 C119.557107,122.734778 118.437728,122.733615 116.275528,122.733615 C116.101531,122.733615 115.927534,122.737104 115.753537,122.738267 C115.451943,122.73943 115.281426,122.878988 115.277946,123.19183 C115.265186,124.119891 115.240827,125.047952 115.244307,125.976013 C115.245467,126.385383 115.348705,126.476096 115.776737,126.487726 C116.375286,126.502845 116.973835,126.492378 117.572384,126.493541 C119.639466,126.493541 119.733424,126.492378 121.800506,126.495867 C122.027861,126.495867 122.265657,126.445859 122.472133,126.590068 C122.63801,127.108759 122.62989,130.249978 122.464013,130.898923 C122.045261,131.045459 110.989505,131.082674 110.243639,130.917531 C110.252919,124.150129 110.319038,117.36063 110.359637,110.601369 C110.868868,110.409477 121.904904,110.379239 122.581171,110.561828 C122.61945,111.974853 122.581171,113.411138 122.575371,114.786947 C122.312056,115.038152 122.068461,114.968373 121.845745,114.969536 C119.431829,114.974188 118.641884,114.973025 116.226809,114.973025 C116.072531,114.973025 115.918254,114.973025 115.762817,114.976514 C115.483262,114.982328 115.332465,115.124212 115.328985,115.406817 C115.319705,116.276729 115.311586,117.146641 115.304626,118.016553 C115.302306,118.300321 115.451943,118.443368 115.730338,118.453835 C115.904335,118.45965 116.078331,118.461976 116.251168,118.461976 C118.414528,118.461976 119.533907,118.460813 121.696108,118.464302 C121.940863,118.464302 122.199538,118.409641 122.458213,118.582926 L122.459373,118.581763 Z M200.063098,118.581763 L200.063098,122.587079 C199.789344,122.785949 199.550388,122.731289 199.324192,122.731289 C197.160832,122.734778 196.041453,122.733615 193.879253,122.733615 C193.705256,122.733615 193.531259,122.737104 193.357262,122.738267 C193.055668,122.73943 192.885151,122.878988 192.881671,123.19183 C192.868911,124.119891 192.844552,125.047952 192.848032,125.976013 C192.849192,126.385383 192.95243,126.476096 193.380462,126.487726 C193.979011,126.502845 194.57756,126.492378 195.176109,126.493541 C197.243191,126.493541 197.337149,126.492378 199.404231,126.495867 C199.631586,126.495867 199.869382,126.445859 200.075858,126.590068 C200.241735,127.108759 200.233615,130.249978 200.067738,130.898923 C199.648986,131.045459 188.593231,131.082674 187.847364,130.917531 C187.856644,124.150129 187.922763,117.36063 187.963362,110.601369 C188.472593,110.409477 199.508629,110.379239 200.184896,110.561828 C200.223175,111.974853 200.184896,113.411138 200.179096,114.786947 C199.915781,115.038152 199.672186,114.968373 199.44947,114.969536 C197.035554,114.974188 196.245609,114.973025 193.830534,114.973025 C193.676257,114.973025 193.521979,114.973025 193.366542,114.976514 C193.086987,114.982328 192.93619,115.124212 192.93271,115.406817 C192.92343,116.276729 192.915311,117.146641 192.908351,118.016553 C192.906031,118.300321 193.055668,118.443368 193.334063,118.453835 C193.50806,118.45965 193.682056,118.461976 193.854893,118.461976 C196.018253,118.461976 197.137633,118.460813 199.299833,118.464302 C199.544588,118.464302 199.803263,118.409641 200.061938,118.582926 L200.063098,118.581763 Z M169.67746,124.389703 C170.998676,125.441041 172.318731,126.491215 173.585428,127.499522 C173.607468,127.777475 173.48103,127.88098 173.377792,127.992627 C171.753822,129.769666 169.743579,130.836122 167.379543,131.243166 C164.867029,131.675796 162.428754,131.402495 160.159836,130.236022 C156.15559,128.178704 154.03631,124.86769 154.088509,120.337868 C154.148827,115.039315 157.857279,110.920026 163.099222,110.175717 C166.624397,109.675634 169.764459,110.532753 172.449809,112.916869 C172.778083,113.208778 173.110997,113.505339 173.309353,113.90308 C173.065758,114.27756 169.909456,116.590735 169.321347,116.837287 C169.110231,116.802398 169.009313,116.622135 168.871275,116.493044 C167.189306,114.925342 165.240542,114.472942 163.085302,115.247489 C161.04374,115.981331 159.924361,117.552522 159.605367,119.657523 C159.265493,121.903244 159.9406,123.829145 161.696808,125.314275 C163.783609,127.080848 166.899312,126.977342 168.902595,125.106101 C169.13923,124.885134 169.325987,124.606018 169.6763,124.390866 L169.67746,124.389703 Z M36.6024009,110.03267 C38.4340071,110.171065 40.1786148,110.637421 41.790985,111.543386 C41.9621969,111.639992 42.1432492,111.72728 42.3168779,111.887279 L42.3164553,110.57462 C42.8419256,110.39901 56.5041529,110.388543 57.1235815,110.57462 C57.147941,111.981831 57.150261,113.416952 57.1108217,114.785784 C56.8347468,115.031174 56.5923113,114.96721 56.3672755,114.968373 C56.0241003,114.969446 55.7426991,114.970086 55.4945466,114.97045 L53.0648165,114.970699 C52.2331119,114.970699 52.2064324,114.996284 52.2017925,115.805721 C52.176273,120.485567 52.1530734,125.166576 52.1252339,129.846423 C52.122914,130.190666 52.173953,130.541887 52.0498353,130.90939 C51.5011655,131.058252 47.6175573,131.0536 47.1268863,130.912879 C46.9934888,130.725638 47.0468478,130.506997 47.0480078,130.299986 C47.0758473,125.503842 47.1071667,120.707697 47.1373261,115.911552 C47.1373261,115.833632 47.1396461,115.756876 47.1384861,115.678956 C47.1326862,115.035826 47.0804872,114.974188 46.4471389,114.971862 C46.0948623,114.970788 45.8044216,114.97021 45.547277,114.969913 L43.3614038,114.969041 C43.2566625,114.968861 43.1461076,114.968641 43.0286821,114.968373 C42.8013263,114.968373 42.5623707,115.018381 42.3164553,114.838118 L42.316,112.532 L41.9805509,113.071819 C41.4134845,113.982599 40.8508224,114.886673 40.3096924,115.758039 C39.9350193,115.791765 39.7575426,115.619643 39.5568663,115.514975 C38.5384051,114.982328 37.4793447,114.581099 36.3205261,114.489223 C35.7706963,114.446193 35.2394261,114.505505 34.7406354,114.752058 C33.9309703,115.153287 33.7175343,116.006917 34.2418446,116.747738 C34.4808002,117.085003 34.8079141,117.326904 35.1512678,117.546707 C35.839135,117.986315 36.598921,118.277061 37.3447872,118.594556 C38.5372452,119.101617 39.6925838,119.663338 40.7551242,120.428581 C44.1596612,122.878988 43.4567142,128.298491 40.4581696,130.089486 C39.1253543,130.88613 37.7194603,131.346672 36.1917685,131.412962 C33.5354176,131.52926 31.0565435,130.907064 28.8015452,129.468453 C28.5150305,129.285865 28.1913965,129.130025 28,128.732284 C28.7284665,127.477425 29.4743327,126.207447 30.219039,125.010737 C30.5565927,124.996781 30.6876703,125.159599 30.8454274,125.263104 C31.8708484,125.936472 32.9554284,126.472607 34.1571662,126.755212 C34.7464353,126.893607 35.3415043,126.921519 35.9412132,126.878488 C36.2938466,126.852903 36.6244405,126.747071 36.9295149,126.571461 C37.8122586,126.062074 37.9897353,125.016552 37.3204277,124.245493 C36.9063153,123.76867 36.3657653,123.460479 35.8043357,123.198808 C34.9981506,122.824327 34.1734059,122.490551 33.3730206,122.106766 C31.9288474,121.413628 30.6250315,120.537901 29.6935687,119.187677 C27.9199615,116.618646 28.3967127,112.273739 32.1202438,110.713015 C33.5620972,110.108264 35.0607894,109.915209 36.6024009,110.03267 Z M186.283713,126.642403 C186.396231,128.040309 186.320833,129.475431 186.287193,130.882641 C185.751283,131.045459 175.347435,131.066393 174.667688,130.908227 C174.687408,124.140825 174.748887,117.350163 174.799926,110.588576 C175.341636,110.396684 179.239164,110.388543 179.755354,110.551361 C179.889911,110.759535 179.828433,110.997946 179.827273,111.223565 C179.807553,116.001102 179.782033,120.778639 179.758834,125.556176 C179.758834,125.730624 179.755354,125.903908 179.763474,126.078356 C179.773914,126.333049 179.920071,126.464466 180.168306,126.480748 C180.322583,126.491215 180.476861,126.490052 180.631138,126.490052 C182.640221,126.490052 183.489325,126.487726 185.498408,126.492378 C185.743163,126.492378 186.002998,126.434229 186.282553,126.640077 L186.283713,126.642403 Z M152.248783,130.966376 L147.308434,130.966376 C147.347873,124.138499 147.386152,117.36063 147.425592,110.493211 C149.115681,110.397847 150.735011,110.445529 152.327661,110.457159 C152.500498,111.043303 152.416979,130.190666 152.248783,130.966376 Z M198.708244,159.444357 C198.500607,159.597871 198.301091,159.561819 198.112015,159.561819 C196.779199,159.565308 195.445224,159.547863 194.112408,159.572285 C193.670457,159.580426 193.410621,159.409468 193.168186,159.053595 C190.441076,155.038975 187.698887,151.033659 184.959018,147.028344 C184.84534,146.862037 184.783861,146.624788 184.503146,146.639907 C184.28275,146.787606 184.350029,147.01904 184.348869,147.220236 C184.325669,149.406645 184.30711,151.591891 184.29319,153.778301 C184.28159,155.499517 184.27811,157.221895 184.268831,158.943111 C184.268831,159.11407 184.30247,159.293169 184.196912,159.447846 C183.76888,159.594382 180.011709,159.618805 179.43172,159.479247 C179.300642,159.040802 179.40504,139.668983 179.541918,139.09098 C179.684595,138.960726 179.865552,138.992126 180.036069,138.992126 C181.408323,138.9898 182.779418,139.002593 184.151673,138.983985 C184.570425,138.978171 184.82214,139.146803 185.050656,139.482905 C187.741806,143.428909 190.443396,147.366772 193.147306,151.304634 C193.291144,151.513972 193.373502,151.811695 193.704096,151.81751 C193.959291,151.644226 193.876933,151.390695 193.879253,151.170891 C193.900132,148.018043 193.914052,144.864031 193.932612,141.711182 C193.937252,140.995947 193.952331,140.279549 193.966251,139.564314 C193.968571,139.411963 193.950011,139.252635 194.04861,139.116566 C194.504481,138.949096 198.259332,138.93514 198.803362,139.099121 C198.936759,139.536403 198.850921,158.734937 198.709403,159.44552 L198.708244,159.444357 Z M89.1621891,139.099121 C89.3721452,138.960726 89.5705015,138.992126 89.759578,138.992126 C91.0726738,138.988637 92.3869294,139.006082 93.7000252,138.98166 C94.1570567,138.973519 94.4435714,139.131684 94.7010867,139.509654 C97.3771572,143.440539 100.067147,147.36212 102.760618,151.281375 C102.911415,151.500016 102.992613,151.833792 103.443845,151.802392 C103.578403,150.749891 103.482124,149.695065 103.508804,148.646054 C103.535483,147.583087 103.529683,146.518957 103.537803,145.454827 C103.545923,144.410467 103.556363,143.366108 103.559843,142.321749 C103.563323,141.261108 103.559843,140.199303 103.559843,139.04795 C105.240652,138.940955 106.840262,138.982822 108.536151,139.023527 C108.489752,145.875827 108.443353,152.65137 108.396953,159.371089 C108.192797,159.594382 107.989801,159.560656 107.800724,159.561819 C106.42963,159.564145 105.057375,159.551352 103.686281,159.569959 C103.289568,159.575774 103.048292,159.423424 102.830216,159.104766 C100.089187,155.077354 97.3388779,151.056919 94.5897287,147.035321 C94.4748908,146.867852 94.4157319,146.634092 94.144297,146.627114 C93.8902617,146.782954 93.9737801,147.039973 93.9726201,147.255125 C93.9459406,151.084831 93.926221,154.913373 93.9030214,158.743078 C93.9018614,158.972186 93.9366608,159.205946 93.8577823,159.419935 C93.4506298,159.588567 89.8222169,159.637413 89.0844705,159.489714 C88.9325133,159.084995 89.0009521,139.90972 89.1610291,139.096795 L89.1621891,139.099121 Z M76.1994288,138.560659 C80.785984,138.771159 84.3807575,140.691246 86.3910003,144.930321 C89.1946685,150.840604 86.2784824,157.932478 79.4984078,159.610664 C75.6507589,160.563148 72.1093444,159.773482 69.0852803,157.181191 C66.5298476,154.991293 65.3431895,152.12919 65.4185881,148.753048 C65.533426,143.667321 69.2546372,139.46895 74.2889441,138.73627 C74.9211324,138.644394 75.5533207,138.576941 76.2005887,138.561822 Z M62.4177236,140.007411 C63.3932656,140.536569 64.2516497,141.223892 64.9882361,142.058914 C65.0647947,142.146138 65.1401933,142.234525 65.206312,142.328727 C65.2376315,142.37292 65.2445913,142.434558 65.2933104,142.584583 C63.9709349,143.545207 62.6624791,144.494202 61.4155021,145.39784 C61.0733085,145.364114 60.9700704,145.153614 60.8181132,145.014056 C59.0839452,143.427746 57.0783423,142.985812 54.9126624,143.848746 C52.8270209,144.679117 51.7134415,146.350324 51.5197251,148.580927 C51.3376085,150.676623 51.9953163,152.468781 53.636686,153.846917 C55.7907661,155.656519 58.9714273,155.523939 60.9712303,153.54803 C61.1603068,153.36079 61.2971843,153.110748 61.6637375,152.958397 C62.9455138,153.976008 64.2667294,155.025019 65.5369059,156.032163 C65.5461857,156.38571 65.3547893,156.512475 65.2132719,156.6625 C63.5139033,158.454658 61.4398617,159.508321 58.9946269,159.847913 C56.3603156,160.214252 53.848962,159.816512 51.5510445,158.484896 C47.8391132,156.334539 45.9738677,153.065392 46.0481063,148.760026 C46.1374246,143.625453 49.8783555,139.464298 54.9590615,138.729292 C57.5922128,138.347833 60.0780469,138.737433 62.4177236,140.007411 Z M72.7983717,144.731451 C71.4748361,145.875827 70.8658474,147.345838 70.833368,149.30314 C70.7742091,151.502342 72.0861448,153.623624 74.2866241,154.651702 C76.4221446,155.649541 79.162014,155.019204 80.6421466,153.187505 C82.7405478,150.591726 82.3357153,146.729457 79.7431632,144.624456 C77.7503201,143.005583 74.7401757,143.050939 72.7983717,144.731451 Z M216.141561,146.007244 C215.846927,145.925835 215.769208,145.760691 215.67293,145.618807 C213.561769,142.525271 208.829056,142.77066 206.822293,146.031667 C205.438439,148.279714 205.711034,151.2209 207.451002,153.213091 C209.049452,155.042464 212.075836,155.661171 214.260076,154.60053 C215.047701,154.217909 215.67409,153.660839 216.059203,152.860707 C216.165921,152.63974 216.299318,152.412958 216.141561,152.060574 C214.734507,151.923342 213.274094,152.08616 211.774242,151.971024 L211.774242,147.976175 C212.233593,147.831965 221.186308,147.80638 221.794137,147.936634 C221.874175,148.001761 221.913614,148.091311 221.919414,148.189001 C222.096891,151.031333 221.60158,153.712011 219.898732,156.057749 C218.304921,158.252299 216.117202,159.479247 213.437651,159.84675 C210.374148,160.266587 207.53336,159.657183 205.024327,157.848744 C201.912104,155.606511 200.435452,152.493204 200.53289,148.662336 C200.662807,143.573119 204.372419,139.459646 209.407886,138.728129 C211.89372,138.366441 214.261236,138.700217 216.505794,139.82366 C218.039286,140.591229 219.286263,141.697226 220.225846,143.140489 C220.309364,143.268417 220.414922,143.388205 220.397522,143.674299 C219.003228,144.466291 217.539335,145.258282 216.141561,146.007244 L216.141561,146.007244 Z M126.96589,139.106099 C127.480921,138.944444 131.369169,138.945607 131.869119,139.103773 C132.015277,139.307295 131.958438,139.54687 131.957278,139.772488 C131.931758,143.350989 131.901599,146.928327 131.870279,150.506828 C131.86332,151.246485 131.906239,151.980328 132.174194,152.676955 C132.849301,154.427246 134.509231,155.391359 136.435955,155.164577 C138.164323,154.961055 139.453059,153.660839 139.725654,151.836118 C139.799893,151.338361 139.831212,150.837115 139.832372,150.33238 C139.845132,146.850407 139.863692,143.369597 139.883411,139.887624 C139.884571,139.638745 139.859052,139.385215 139.93561,139.149129 C140.353203,138.952585 144.237971,138.91188 144.870159,139.093306 C145.009356,139.277057 144.961797,139.496861 144.959477,139.703872 C144.928158,143.649876 144.915398,147.59588 144.851599,151.54072 C144.778521,155.955406 141.922654,159.210597 137.540255,159.844424 C134.309714,160.311943 131.428328,159.52344 129.11765,157.125368 C127.695517,155.648379 126.96589,153.827146 126.883532,151.783784 C126.822053,150.257949 126.860332,148.728626 126.863812,147.200465 C126.870772,144.686094 126.884692,142.171724 126.897451,139.657353 C126.897451,139.485231 126.875412,139.308458 126.96589,139.106099 L126.96589,139.106099 Z M122.261017,144.30231 C121.902584,144.344177 121.725107,144.170893 121.524431,144.067387 C120.50365,143.539393 119.442269,143.141652 118.286931,143.03931 C117.75798,142.99279 117.24411,143.046287 116.756919,143.267254 C115.879975,143.664995 115.652619,144.559329 116.229129,145.330387 C116.464604,145.644393 116.770839,145.879316 117.096793,146.089816 C117.7835,146.534075 118.540966,146.827147 119.286832,147.145805 C120.46073,147.647051 121.600989,148.198305 122.65657,148.9368 C125.756032,151.106927 125.551876,155.828641 123.226119,157.98365 C122.236658,158.901244 121.066239,159.495528 119.754303,159.74557 C116.446045,160.375907 113.384861,159.695562 110.559153,157.891774 C110.396756,157.788268 110.245959,157.664992 110.098642,157.540553 C110.042963,157.494034 110.010484,157.419603 109.923485,157.295163 C110.676311,156.043793 111.437257,154.77963 112.171524,153.55966 C112.507917,153.542215 112.657555,153.7155 112.830391,153.828309 C113.876692,154.505166 114.980992,155.047116 116.205929,155.320417 C116.776638,155.448345 117.353148,155.476257 117.934297,155.42276 C118.285771,155.390196 118.617524,155.286691 118.919119,155.104102 C119.753143,154.598204 119.9283,153.621298 119.316991,152.860707 C118.919119,152.366439 118.380889,152.053596 117.820619,151.788436 C117.000514,151.399999 116.16185,151.048778 115.341745,150.659179 C114.200326,150.116065 113.151705,149.436883 112.264322,148.519289 C110.513914,146.708523 110.124161,143.755707 111.390858,141.582091 C112.202843,140.188837 113.46026,139.343347 114.986792,138.93514 C118.116414,138.098955 121.073199,138.660676 123.888467,140.16674 C124.103063,140.281875 124.346658,140.385381 124.477736,140.740091 C123.74695,141.913541 122.987164,143.133511 122.259857,144.30231 L122.261017,144.30231 Z M171.086834,139.106099 C171.111194,140.513309 171.113514,141.948431 171.074074,143.317263 C170.798,143.562652 170.555564,143.498688 170.330528,143.499851 C169.872961,143.501282 169.525215,143.501943 169.219673,143.502206 L168.139666,143.502052 C168.063246,143.502015 167.984181,143.501981 167.901416,143.501958 L167.351957,143.501985 C167.250161,143.502026 167.14255,143.502088 167.028069,143.502177 C166.196365,143.502177 166.169685,143.527763 166.165045,144.337199 C166.139526,149.017046 166.116326,153.698055 166.088487,158.377901 C166.086167,158.722144 166.137206,159.073365 166.013088,159.440868 C165.464418,159.58973 161.58081,159.585078 161.090139,159.444357 C160.956742,159.257117 161.010101,159.038476 161.011261,158.831465 C161.0391,154.03532 161.070419,149.239175 161.100579,144.443031 C161.100579,144.365111 161.102899,144.288354 161.101739,144.210434 C161.095939,143.567304 161.04374,143.505666 160.410392,143.50334 C160.175541,143.502624 159.968172,143.502129 159.77983,143.50179 L157.891797,143.50118 C157.634652,143.501028 157.344211,143.500656 156.991935,143.499851 C156.764579,143.499851 156.525623,143.549859 156.279708,143.369597 L156.279708,139.106099 C156.537834,139.019834 159.965925,138.973419 163.460767,138.970576 L164.209552,138.970635 C167.573507,138.973915 170.793421,139.017957 171.086834,139.106099 Z M151.891509,139.085165 C152.026067,139.293339 151.964588,139.531751 151.963428,139.75737 C151.943708,144.534907 151.918189,149.312443 151.894989,154.08998 C151.894989,154.264428 151.891509,154.437713 151.899629,154.61216 C151.910069,154.866853 152.056226,154.998271 152.304462,155.014552 L152.535877,155.023129 L156.40047,155.023962 C156.769068,155.024407 157.170928,155.025109 157.634563,155.026182 C157.879318,155.026182 158.139154,154.968033 158.418708,155.173881 C158.532386,156.574114 158.456988,158.009235 158.423348,159.416446 C157.95306,159.559326 149.883514,159.592943 147.454978,159.492145 L147.154055,159.477205 C146.979623,159.466661 146.859333,159.454943 146.803843,159.442031 C146.823563,152.674629 146.885042,145.883968 146.936081,139.122381 C147.477791,138.930488 151.375319,138.922347 151.891509,139.085165 Z M172.583207,139.127032 C173.120277,138.959563 176.933126,138.940955 177.501516,139.074698 C177.648833,139.467787 177.580394,158.824487 177.429597,159.442031 C176.993445,159.596708 173.129556,159.621131 172.462569,159.447846 C172.502008,152.695563 172.542607,145.92002 172.582047,139.127032 L172.583207,139.127032 Z" id="Combined-Shape" fill="#FFFFFF" fill-rule="nonzero"></path>
                </g>
            </g>
        </g>
    </g>
</svg>