<?xml version="1.0" encoding="UTF-8"?>
<svg width="72px" height="72px" viewBox="0 0 72 72" version="1.1" xmlns="http://www.w3.org/2000/svg" xmlns:xlink="http://www.w3.org/1999/xlink">
    <title>Icon-Hot</title>
    <g id="Site" stroke="none" stroke-width="1" fill="none" fill-rule="evenodd">
        <g id="Careers-(desktop)" transform="translate(-733, -1685)" fill-rule="nonzero">
            <g id="Positions" transform="translate(0, 1594)">
                <g id="Icon-Hot" transform="translate(741.8832, 91)">
                    <path d="M39.6292724,8.16561983 C40.4805385,5.5941557 39.5672009,2.76554516 37.376964,1.1783311 C35.1867272,-0.408882969 32.216163,-0.391148734 30.0347935,1.22266668 C16.8451664,11.0237505 14.9109854,19.129045 16.0955716,26.8039867 C16.3847431,28.6775308 16.5627591,29.2833728 15.9219649,29.5743596 C15.2811708,29.8653464 15.0941322,29.5743596 13.3907668,28.444718 C11.6874015,27.3150763 7.67187314,27.0792096 5.30373842,29.9432608 C-4.60085433,41.9219972 0.577437822,58.2204991 10.8990399,66.502387 C13.718859,68.7723692 18.6225067,70.6699323 22.0009692,71.3704346 C22.1073775,71.3881689 22.2137858,71.4147702 22.3290614,71.4325045 C24.4040226,71.7517207 26.3637082,72 28.5716798,72 C30.7796514,72 33.2093068,71.7517207 36.2596772,71.0689526 C43.6727866,69.4108016 50.3055687,63.5319026 53.5510209,55.7377062 C60.0596599,40.1404462 51.7509476,30.3600154 45.6856763,23.2131185 C40.4716712,17.068206 37.8291992,13.601163 39.6292724,8.16561983 Z" id="Path" fill="#1A1A1C"></path>
                    <path d="M23.2690011,65.3053262 C20.2807022,64.6846279 16.5209434,63.0708125 14.791809,61.678675 C6.57177028,55.0815395 3.03369535,42.9513225 10.1985188,33.7738557 C7.45850586,39.9542367 16.2017186,49.1051022 22.9409089,41.8872684 C30.5136307,33.7827228 10.5798151,23.4170622 33.7413482,6.20598682 C27.3834541,25.3766952 57.3373817,30.555092 47.8315764,53.3524515 C45.2068391,59.6569722 39.9839666,63.8777202 34.9118391,65.0127113 C29.8397117,66.1477023 27.0110252,65.8728217 23.2690011,65.296459 L23.2690011,65.3053262 Z" id="Path" fill="#FFDD00"></path>
                    <path d="M28.5716798,68.0186642 C26.6119942,68.0186642 24.8651251,67.7881191 22.9320416,67.4955042 C22.8965722,67.4955042 22.8522354,67.4866371 22.816766,67.47777 C19.4737728,66.7861348 15.4302586,65.0304455 13.3996342,63.407763 C4.59434996,56.3318031 0.338019217,42.8005815 8.46051705,32.4171867 C9.1521708,31.539342 10.3847332,31.308797 11.351275,31.8851596 C12.3089494,32.4615223 12.6902457,33.6585832 12.2380106,34.6871688 C11.20053,37.0192208 12.7700519,40.0872435 14.8804826,41.4793809 C16.1307797,42.31289 18.6402414,43.2705387 21.3270502,40.3887255 C23.1980622,38.393624 22.6660209,36.2389144 21.4866626,32.293047 C19.4471708,25.4831007 16.6539537,16.16376 32.4289795,4.4414304 C33.2093068,3.86506775 34.2645222,3.85620063 35.0537168,4.42369617 C35.8340441,4.9911917 36.1621363,6.00204311 35.8606462,6.91535623 C33.2713783,14.736154 37.62525,19.8702152 42.6707754,25.811184 C48.6651079,32.8694097 55.4575023,40.8764169 49.8976703,54.2125619 C47.1399227,60.8362988 41.588958,65.8018847 35.4084111,67.1851551 C32.6861329,67.7969862 30.5313654,68.0186642 28.5894145,68.0186642 L28.5716798,68.0186642 Z M23.6680321,63.1240152 C27.2149744,63.6649094 29.7244361,63.9131887 34.4241346,62.8580017 C39.1415678,61.8028147 43.6018477,57.7328077 45.7832173,52.5012082 C50.3055687,41.6655904 44.9408185,35.3522026 39.2745782,28.675263 C35.2221966,23.9047537 30.7530493,18.6376858 30.6377737,11.6681313 C22.3024593,19.5864674 24.040461,25.3766952 25.7252586,31.007315 C26.9134843,34.9620495 28.252455,39.448811 24.563635,43.4035455 C20.3959778,47.8637057 15.563269,47.2430074 12.4330924,45.1681019 C11.0586523,44.2547888 9.83495719,42.9601896 8.94822162,41.4439125 C7.43190379,48.3070616 10.7748969,55.5958323 16.1839839,59.9495871 C17.4874852,60.995907 20.7950088,62.5121841 23.6680321,63.1240152 Z" id="Shape" fill="#FF5700"></path>
                    <path d="M32.0831527,41.5237165 C31.8259994,41.2931715 31.4535704,41.2399688 31.143213,41.3818427 C30.8328555,41.5237165 30.620039,41.8251985 30.6111716,42.1710161 C30.4781613,47.0390637 27.2415765,48.9632283 24.1113999,50.825323 C21.9477651,52.111055 19.9082733,53.3258502 18.9860683,55.4184899 C18.0106592,57.6352694 18.5604352,59.2579519 19.1900175,60.2244677 C20.573325,62.3437088 23.7921751,63.558504 28.0307711,63.558504 C35.656697,63.558504 37.2794231,57.2096477 37.5277091,55.9416499 C38.2104955,52.3948028 38.3967099,47.0479309 32.09202,41.5237165 L32.0831527,41.5237165 Z" id="Path" fill="#FFFFFF"></path>
                </g>
            </g>
        </g>
    </g>
</svg>