<?xml version="1.0" encoding="UTF-8"?>
<svg width="302px" height="84px" viewBox="0 0 302 84" version="1.1" xmlns="http://www.w3.org/2000/svg" xmlns:xlink="http://www.w3.org/1999/xlink">
    <title>Justnews-Logo</title>
    <g id="Site" stroke="none" stroke-width="1" fill="none" fill-rule="evenodd">
        <g id="Job-(desktop)" transform="translate(-569, -145)">
            <g id="Justnews-Logo" transform="translate(569, 145)">
                <g id="logo" fill-rule="nonzero">
                    <g id="Group" fill="#FFFFFF">
                        <path d="M15.0669021,55.3145411 C7.83710264,45.1061551 8.06845623,31.4567401 15.5296093,21.477756 L15.0090637,20.6748492 L11.0182144,14.1368941 C10.671184,13.5633893 9.97712329,13.3913379 9.39873933,13.7354408 C9.28306254,13.7927912 9.16738575,13.9074922 9.10954735,13.9648427 C-3.03651578,28.3024635 -3.03651578,49.2353899 9.10954735,63.5730107 C9.51441613,64.0891651 10.2663153,64.1465156 10.7868608,63.6877117 C10.9025376,63.6303612 10.960376,63.5156603 11.0182144,63.4009593 L15.0669021,56.6336023 C15.3560941,56.2321489 15.2982557,55.7159945 15.0669021,55.3145411 Z" id="Path"></path>
                        <path d="M14.1414878,10.9826176 L20.9664185,14.9971514 C21.3712873,15.2265533 21.8918328,15.2265533 22.2388632,14.9398009 C32.5340977,7.77099049 46.2996359,8.00039242 56.3635168,15.3986048 L57.2310927,14.8824504 L63.8825083,10.9252671 C64.4608922,10.5811642 64.6344074,9.89295837 64.287377,9.31945354 C64.2295386,9.20475257 64.1138619,9.0900516 64.0560235,9.03270112 C49.5964245,-3.01090037 28.48541,-3.01090037 14.025811,9.03270112 C13.5052654,9.4341545 13.447427,10.1797108 13.9101342,10.6958651 C13.9679726,10.8105661 14.0836494,10.9252671 14.1414878,10.9826176 Z" id="Path"></path>
                        <path d="M76.6647938,28.7612674 C75.2188339,23.3129715 72.5582677,18.2661289 68.9144487,13.9074922 C68.5095799,13.3913379 67.7576808,13.3339874 67.2371352,13.7927912 C67.1214584,13.8501417 67.06362,13.9648427 67.0057817,14.0795437 L62.8992555,20.7895502 C62.667902,21.1910036 62.667902,21.7071579 62.9570939,22.0512608 C70.1868934,32.2596469 69.9555398,45.9090619 62.4943868,55.888046 L63.0149323,56.7483032 L67.0057817,63.3436088 C67.352812,63.9171136 68.0468728,64.0891651 68.6252567,63.7450622 C68.7409335,63.6877117 68.8566103,63.5730107 68.9144487,63.5156603 C77.0696625,53.8807791 79.9615823,40.9195698 76.6647938,28.7612674 Z" id="Path"></path>
                        <path d="M21.6026409,62.0245477 C31.7243602,69.42276 45.4898984,69.5948115 55.7851328,62.4833516 C56.1321632,62.1965991 56.6527088,62.1965991 57.0575776,62.4260011 L63.9403467,66.4978854 C64.5187306,66.8419883 64.6922458,67.5301941 64.3452154,68.0463484 C64.287377,68.1610494 64.1717003,68.2757504 64.1138619,68.3331009 C59.7759822,71.9461813 54.6283649,74.641654 49.1337173,76.0754161 C43.9861001,77.4518277 38.6071293,77.7385801 33.3438352,76.9356733 C32.3027441,76.7636219 31.261653,76.9356733 30.3362387,77.3944772 L17.3225996,83.8750818 C16.802054,84.1618342 16.1658317,83.9324323 15.8766397,83.416278 C15.7609629,83.2442265 15.7609629,83.0148246 15.7609629,82.7854226 L17.380438,70.9138726 C16.1658317,70.1109658 14.9512253,69.1933581 13.7944574,68.2757504 C13.3895887,67.9316475 13.3317503,67.2434417 13.6787806,66.8419883 C13.736619,66.7846378 13.8522958,66.6699368 13.9101342,66.6125864 L21.6026409,62.0245477" id="Path"></path>
                    </g>
                    <g id="Group" transform="translate(1.041, 1.0467)" fill="#BBBBB9">
                        <path d="M13.1004626,9.878531 C12.5220787,9.5344281 12.3485635,8.8462223 12.6955938,8.27271746 C12.7534322,8.1580165 12.8112706,8.10066601 12.9269474,7.98596505 C18.1902415,3.39792638 23.2800203,1.04655657 27.9649304,0.301000284 C41.3834382,-1.93566856 50.8689351,8.8462223 55.38033,14.3518687 L55.38033,14.3518687 C45.2586107,6.95365635 31.5509109,6.7816049 21.2556764,13.8930648 C20.8508077,14.1798172 20.3881005,14.1798172 19.9832317,13.9504153 L13.1004626,9.878531 Z" id="Path"></path>
                        <path d="M56.0165524,61.379265 C55.6116836,61.1498631 55.091138,61.1498631 54.7441077,61.4366155 C44.4488732,68.6054259 30.683335,68.376024 20.6194541,60.9778116 L20.6194541,60.9778116 C25.130849,66.483458 34.6741843,77.2653489 48.0348537,75.02868 C52.7197638,74.2257733 57.7517042,71.9317539 63.0728367,67.3437153 C63.5355438,66.8849114 63.5933822,66.1393551 63.1885135,65.6805512 C63.1306751,65.5658503 63.0149983,65.5084998 62.8993215,65.4511493 L56.0165524,61.379265 Z" id="Path"></path>
                        <path d="M61.8582304,19.8001646 C61.6268768,20.201618 61.6268768,20.7177723 61.9160688,21.0618752 C69.1458682,31.2702613 68.9145147,44.9196763 61.4533616,54.8986604 L61.4533616,54.8986604 C67.0058476,50.4253227 77.879466,40.9624929 75.6237686,27.7145313 C74.814031,23.0691422 72.5004952,18.0796501 67.8734235,12.8034056 C67.4107164,12.3446018 66.6588172,12.2872513 66.19611,12.6887047 C66.0804333,12.7460552 66.0225949,12.8607561 65.9647565,12.9754571 L61.8582304,19.8001646 Z" id="Path"></path>
                        <path d="M14.4885841,20.4310199 C7.02743104,30.4673545 6.85391585,44.059419 14.0258769,54.2678051 C14.3150689,54.6692585 14.3150689,55.1280623 14.0837153,55.5295157 L9.97718923,62.2968727 C9.63015886,62.8703776 8.93609811,63.042429 8.35771415,62.6983261 C8.24203736,62.6409756 8.18419896,62.5836251 8.06852217,62.4689242 C3.4414505,57.2500302 1.07007626,52.2031877 0.318177117,47.5577985 C-1.99535872,34.3671874 8.87825971,24.9043576 14.4885841,20.4310199" id="Path"></path>
                    </g>
                    <path d="M54.6283649,23.1982705 L22.5858936,32.3743478 C22.065348,32.5463993 21.7761561,33.0625536 21.8918328,33.578708 C21.9496712,33.8654604 22.1810248,34.0948623 22.4123784,34.2095633 L36.6406238,40.9195698 L42.1352714,55.2571907 C42.366625,55.8306955 43.0028474,56.1174479 43.5812313,55.888046 C43.8704233,55.773345 44.1017769,55.5439431 44.2174537,55.2571907 L55.958648,24.5746821 C56.1900016,24.0011773 55.9008096,23.3703219 55.3224257,23.1982705 C55.0910721,23.14092 54.8597185,23.0835695 54.6283649,23.1982705 Z M38.5492909,39.1990553 L31.4930066,35.8727273 L31.4930066,35.8727273 L27.2129653,33.8654604 L32.7076129,32.3169973 L32.7076129,32.3169973 L32.7076129,32.3169973 L46.0682823,28.474515 L46.0104439,28.5318654 L52.0834755,26.8113509 L38.5492909,39.1990553 Z" id="Shape" fill="#FFFFFF"></path>
                    <polygon id="Path" fill="#BBBBB9" points="52.1413139 26.7540005 27.2129653 33.8081099 38.5492909 39.1990553"></polygon>
                </g>
                <text id="just.news" font-family="Roboto-Bold, Roboto" font-size="46" font-weight="bold" fill="#FFFFFF">
                    <tspan x="102.834961" y="54">just.news</tspan>
                </text>
            </g>
        </g>
    </g>
</svg>