<?xml version="1.0" encoding="UTF-8"?>
<svg width="256px" height="31px" viewBox="0 0 256 31" version="1.1" xmlns="http://www.w3.org/2000/svg" xmlns:xlink="http://www.w3.org/1999/xlink">
    <title>Logo</title>
    <g id="Symbols" stroke="none" stroke-width="1" fill="none" fill-rule="evenodd">
        <g id="Desktop/Menubar" transform="translate(-49, -46)" fill="#1A1A1C">
            <g id="Logo" transform="translate(48.9999, 45.9999)">
                <path d="M22.5734735,0.468738307 C22.593845,0.706954137 22.6065001,0.947332756 22.6065001,1.19080107 L22.6065001,15.1537709 C22.6065001,19.7775062 18.8485757,23.5392153 14.2294925,23.5392153 C9.61010062,23.5392153 5.85248492,19.7775062 5.85248492,15.1537709 L5.85248492,1.19080107 C5.85248492,0.947332756 5.86513994,0.706954137 5.88551144,0.468738307 L0.0185195451,0.468738307 C0.00648184079,0.707881047 -7.10542736e-15,0.948877606 -7.10542736e-15,1.19080107 L-7.10542736e-15,15.1537709 C-7.10542736e-15,23.007478 6.38337854,29.3972855 14.2294925,29.3972855 C22.0756064,29.3972855 28.458985,23.007478 28.458985,15.1537709 L28.458985,1.19080107 C28.458985,0.948877606 28.4525031,0.707881047 28.4404654,0.468738307 L22.5734735,0.468738307 Z" id="Fill-1"></path>
                <polygon id="Fill-4" points="77.3965126 5.41216478 66.8928439 5.41216478 66.8928439 0.346293517 93.6708715 0.346293517 93.6708715 5.41216478 83.1672028 5.41216478 83.1672028 28.8277612 77.3965126 28.8277612"></polygon>
                <path d="M161.451511,14.3229199 C161.451511,12.3183228 161.827767,10.4447291 162.580278,8.70121166 C163.33248,6.95831219 164.430689,5.44250562 165.875214,4.15471888 C167.319429,2.86724111 169.094219,1.85289277 171.199891,1.11167387 C173.305255,0.370763937 175.717117,0 178.436095,0 C179.418866,0 180.404723,0.0519069512 181.394284,0.155102914 C182.382919,0.258298876 183.360133,0.419272219 184.325002,0.638022941 C185.28987,0.856773664 186.230046,1.1329928 187.146454,1.46698931 C188.062555,1.80129479 188.933282,2.19924809 189.758945,2.66054022 L187.101081,7.03400982 C186.603214,6.74234219 186.038986,6.47817289 185.408086,6.24119294 C184.776879,6.00452196 184.100298,5.80400046 183.378344,5.63993742 C182.656082,5.47587438 181.909744,5.35135949 181.139331,5.26639275 C180.368301,5.18142602 179.594801,5.13878817 178.818215,5.13878817 C177.021819,5.13878817 175.419878,5.36649902 174.012393,5.82222969 C172.60429,6.27765139 171.415027,6.91567433 170.444294,7.73568057 C169.473252,8.55537784 168.733088,9.5366664 168.223492,10.6783104 C167.713896,11.8205722 167.458943,13.0715916 167.458943,14.4322952 C167.458943,15.8415071 167.725625,17.1354733 168.259914,18.3132667 C168.793894,19.4919871 169.552578,20.5063354 170.535348,21.3566207 C171.518428,22.207215 172.707691,22.8721183 174.103447,23.3519486 C175.498895,23.8320879 177.058549,24.0715396 178.781793,24.0715396 C180.153165,24.0715396 181.409099,23.9167457 182.549903,23.6071578 C183.690707,23.2972609 184.685824,22.8569788 185.535563,22.2860023 C186.384992,21.7150258 187.076697,21.0257139 187.610678,20.2177575 C188.144658,19.41011 188.496221,18.5020474 188.6666,17.4935695 L178.727161,17.4935695 L178.727161,12.7372861 L193.854542,12.7372861 L193.854542,12.7558243 L193.872753,12.7372861 C194.176165,14.1953153 194.270306,15.6137963 194.154868,16.9924202 C194.039738,18.3713531 193.723979,19.6711896 193.208519,20.8919299 C192.692441,22.1129791 191.985612,23.2336131 191.087722,24.2538319 C190.189524,25.2743596 189.115391,26.1521433 187.865321,26.8871828 C186.615561,27.6222223 185.19542,28.1931987 183.605826,28.5998032 C182.015923,29.0070256 180.274468,29.2103278 178.381154,29.2103278 C175.735328,29.2103278 173.366061,28.8219526 171.272735,28.0442752 C169.1791,27.2669068 167.404311,26.2037412 165.948057,24.8550874 C164.491803,23.5067426 163.378162,21.9279061 162.607748,20.1176512 C161.836718,18.3073963 161.451511,16.3760252 161.451511,14.3229199" id="Fill-6"></path>
                <polygon id="Fill-9" points="199.217926 0.346355311 223.447356 0.346355311 223.447356 5.41222657 204.988616 5.41222657 204.988616 11.0975826 221.335819 11.0975826 221.335819 15.853557 204.988616 15.853557 204.988616 23.780181 223.829784 23.780181 223.829784 28.827823 199.217926 28.827823"></polygon>
                <polygon id="Fill-11" points="238.811479 5.41216478 228.30781 5.41216478 228.30781 0.346293517 255.085838 0.346293517 255.085838 5.41216478 244.582169 5.41216478 244.582169 28.8277612 238.811479 28.8277612"></polygon>
                <path d="M62.3675313,6.37797393 C61.851762,5.09049616 61.0662246,3.99983225 60.0103019,3.10721807 C58.9543791,2.21398595 57.6252931,1.5308534 56.0236611,1.05720247 C54.4214118,0.58324257 52.5284056,0.34626262 50.3440253,0.34626262 L35.3438111,0.34626262 L35.3438111,28.8277303 L41.1145013,28.8277303 L41.1145013,5.37567542 L50.4894037,5.37567542 C52.6740927,5.37567542 54.3152331,5.84654562 55.4137508,6.78797705 C56.5119598,7.72940848 57.061373,9.04469355 57.061373,10.7332143 C57.061373,11.5711408 56.924637,12.3336786 56.6514737,13.0199009 C56.3786191,13.7064321 55.9659419,14.2897674 55.4137508,14.7692887 C54.861251,15.249428 54.1757192,15.619574 53.356538,15.8809626 C52.5376654,16.1420422 51.5817482,16.2727365 50.4894037,16.2727365 L45.0699675,16.2727365 L45.0699675,21.2731061 L50.3804471,21.2836111 C52.5648274,21.2836111 54.4581422,21.0194418 56.0597742,20.4911032 C57.6620235,19.9627646 58.9877143,19.2277251 60.0377725,18.2862936 C61.0872134,17.3448622 61.8671949,16.2300986 62.3767911,14.9423119 C62.8863872,13.6548341 63.1413396,12.2518016 63.1413396,10.7332143 C63.1413396,9.11761046 62.8833006,7.66576067 62.3675313,6.37797393" id="Fill-13"></path>
                <path d="M153.023236,18.1585346 C153.824206,17.5331794 154.48844,16.8191499 155.016556,16.0173728 C155.544363,15.2159048 155.935743,14.3381212 156.190695,13.3843309 C156.445648,12.4308497 156.572815,11.4254615 156.572815,10.3687843 C156.572815,8.80137972 156.314776,7.39834719 155.799315,6.1593777 C155.283237,4.92009924 154.4977,3.86960142 153.441777,3.00695732 C152.385855,2.14431323 151.057077,1.48528033 149.455137,1.02954966 C147.853196,0.574127956 145.959881,0.346417105 143.775501,0.346417105 L129.303402,0.346417105 L129.303402,28.8275758 L135.074093,28.8275758 L135.074093,5.37582991 L143.921188,5.37582991 C146.117606,5.37582991 147.762142,5.81024166 148.854486,6.67875618 C149.946522,7.5472707 150.492848,8.77728006 150.492848,10.3687843 C150.492848,11.1826111 150.356421,11.9204313 150.083258,12.5825539 C149.810095,13.2449855 149.397417,13.8066929 148.845226,14.268294 C148.293035,14.7298951 147.607503,15.0879912 146.788322,15.3432004 C145.969141,15.5984096 145.013532,15.7260142 143.921188,15.7260142 L139.029559,15.7260142 L139.029559,20.7270017 L143.811923,20.7368888 L143.975821,20.7368888 L149.32766,28.8275758 L156.390706,28.8275758 L150.201474,19.71667 C151.281472,19.3035772 152.222265,18.7841987 153.023236,18.1585346" id="Fill-15"></path>
                <polygon id="Fill-17" points="110.997665 0.276126442 106.407596 0.276126442 91.8787042 26.5317746 94.8452267 30.3429189 106.724898 27.1945152 106.724898 21.7609697 99.4501116 23.6889421 108.702476 6.96872447 117.955458 23.6889421 110.680364 21.7609697 110.680364 27.1945152 122.560343 30.3429189 125.526866 26.5317746"></polygon>
            </g>
        </g>
    </g>
</svg>