<?xml version="1.0" encoding="UTF-8"?>
<svg width="130px" height="130px" viewBox="0 0 130 130" version="1.1" xmlns="http://www.w3.org/2000/svg" xmlns:xlink="http://www.w3.org/1999/xlink">
    <title>Perk-3</title>
    <g id="Site" stroke="none" stroke-width="1" fill="none" fill-rule="evenodd">
        <g id="Careers-(desktop)" transform="translate(-1055, -4274)">
            <g id="Perks" transform="translate(160, 2894)">
                <g id="Perk" transform="translate(800, 1350)">
                    <g id="Perk-3" transform="translate(107.037, 42.037)">
                        <path d="M43.2762778,96.3918704 L43.2762778,38.6145741 L61.6953519,17.6340185 L61.2781481,3.50831481 L38.935,26.8023889 C37.4761111,28.3383148 35.4514815,28.9859074 33.332963,28.9859074 L28.3375926,28.9859074 C26.2455556,28.9859074 24.2401852,28.3575741 22.7837037,26.8529444 L1.42108547e-14,3.39757407 L0.34787037,17.6455741 L19.2026852,38.6140926 L19.2026852,96.3918704 L43.2762778,96.3918704 Z" id="Stroke-3" fill="#FFFFFF"></path>
                        <path d="M89.0170185,103.614333 L89.0170185,53.0590185 L105.216469,33.7937203 L107.436093,31.1540185 L107.631333,17.0280741 L85.2881852,40.7843704 C83.8292963,42.3202963 81.8046667,43.4301111 79.6861481,43.4301111 L74.6931852,43.4301111 C72.5987407,43.4301111 70.5933704,42.3395556 69.1368889,40.8349259 L59.8274444,29.6212222 L51.4231852,37.1361852 L64.9431852,53.0587778 L64.9431852,103.614333 L89.0170185,103.614333 Z" id="Stroke-11" fill="#FFFFFF"></path>
                        <path d="M31.2392407,19.2977778 C35.5123889,19.2977778 38.461463,15.6842593 38.461463,11.2257407 L38.461463,8.07203704 C38.461463,3.61351852 35.5123889,7.10542736e-15 31.2392407,7.10542736e-15 C26.9660926,7.10542736e-15 24.0170185,3.61351852 24.0170185,8.07203704 L24.0170185,11.2257407 C24.0170185,15.6842593 26.9660926,19.2977778 31.2392407,19.2977778 Z" id="Stroke-1" stroke="#1A1A1C" stroke-width="4.81481481" fill="#FFFFFF"></path>
                        <polyline id="Stroke-3" stroke="#1A1A1C" stroke-width="4.81481481" points="0.34787037 17.6455741 19.2026852 38.6140926 19.2026852 96.3918704"></polyline>
                        <path d="M61.2781481,3.50831481 L38.935,26.8023889 C37.4761111,28.3383148 35.4514815,28.9859074 33.332963,28.9859074 L28.3375926,28.9859074 C26.2455556,28.9859074 24.2401852,28.3575741 22.7837037,26.8529444 L0,3.39757407" id="Stroke-5" stroke="#1A1A1C" stroke-width="4.81481481"></path>
                        <polyline id="Stroke-7" stroke="#1A1A1C" stroke-width="4.81481481" points="43.2762778 96.3923519 43.2762778 38.6145741 61.6953519 17.6340185"></polyline>
                        <line x1="31.2392407" y1="60.2812407" x2="31.2392407" y2="96.3923519" id="Stroke-9" stroke="#1A1A1C" stroke-width="4.81481481"></line>
                        <polyline id="Stroke-11" stroke="#1A1A1C" stroke-width="4.81481481" points="51.4231852 37.1361852 64.9431852 53.0587778 64.9431852 103.614333"></polyline>
                        <path d="M107.631333,17.0280741 L85.2881852,40.7843704 C83.8292963,42.3202963 81.8046667,43.4301111 79.6861481,43.4301111 L74.6931852,43.4301111 C72.5987407,43.4301111 70.5933704,42.3395556 69.1368889,40.8349259 L59.8274444,29.6212222" id="Stroke-13" stroke="#1A1A1C" stroke-width="4.81481481"></path>
                        <polyline id="Stroke-15" stroke="#1A1A1C" stroke-width="4.81481481" points="89.0170185 103.614574 89.0170185 53.0590185 107.436093 31.1540185"></polyline>
                        <line x1="76.9799815" y1="72.3182778" x2="76.9799815" y2="103.614574" id="Stroke-17" stroke="#1A1A1C" stroke-width="4.81481481"></line>
                        <path d="M76.9799815,33.7422222 C81.2531296,33.7422222 84.2022037,30.1287037 84.2022037,25.6701852 L84.2022037,22.5164815 C84.2022037,18.057963 81.2531296,14.4444444 76.9799815,14.4444444 C72.7068333,14.4444444 69.7577593,18.057963 69.7577593,22.5164815 L69.7577593,25.6701852 C69.7577593,30.1287037 72.7068333,33.7422222 76.9799815,33.7422222 Z" id="Stroke-19" stroke="#1A1A1C" stroke-width="4.81481481" fill="#FFFFFF"></path>
                    </g>
                </g>
            </g>
        </g>
    </g>
</svg>