<?xml version="1.0" encoding="UTF-8"?>
<svg width="130px" height="130px" viewBox="0 0 130 130" version="1.1" xmlns="http://www.w3.org/2000/svg" xmlns:xlink="http://www.w3.org/1999/xlink">
    <title>Perk-7</title>
    <g id="Site" stroke="none" stroke-width="1" fill="none" fill-rule="evenodd" stroke-linejoin="round">
        <g id="Careers-(desktop)" transform="translate(-655, -3874)" stroke="#1A1A1C" stroke-width="4.81481481">
            <g id="Perks" transform="translate(160, 2894)">
                <g id="Perk" transform="translate(400, 950)">
                    <g id="Perk-7" transform="translate(107.037, 42.037)">
                        <path d="M105.925926,28.8888889 L105.925926,21.6666667 C105.925926,19.9814815 99.4162963,16.8518519 93.8888889,16.8518519 C88.3614815,16.8518519 81.8518519,19.9814815 81.8518519,21.6666667 L81.8518519,28.8888889" id="Stroke-1" fill="#FFFFFF"></path>
                        <path d="M86.6666667,7.22222222 C86.6666667,3.55814815 90.155,7.10542736e-15 93.8888889,7.10542736e-15 C97.6227778,7.10542736e-15 101.111111,3.55814815 101.111111,7.22222222 L101.111111,9.62962963 C101.111111,13.2937037 97.6227778,16.8518519 93.8888889,16.8518519 C90.155,16.8518519 86.6666667,13.2937037 86.6666667,9.62962963 L86.6666667,7.22222222 Z" id="Stroke-3" fill="#FFFFFF"></path>
                        <path d="M105.925926,105.925926 L105.925926,98.7037037 C105.925926,97.0185185 99.4162963,93.8888889 93.8888889,93.8888889 C88.3614815,93.8888889 81.8518519,97.0185185 81.8518519,98.7037037 L81.8518519,105.925926" id="Stroke-5" fill="#FFFFFF"></path>
                        <path d="M86.6666667,84.2592593 C86.6666667,80.5951852 90.155,77.037037 93.8888889,77.037037 C97.6227778,77.037037 101.111111,80.5951852 101.111111,84.2592593 L101.111111,86.6666667 C101.111111,90.3307407 97.6227778,93.8888889 93.8888889,93.8888889 C90.155,93.8888889 86.6666667,90.3307407 86.6666667,86.6666667 L86.6666667,84.2592593 Z" id="Stroke-7" fill="#FFFFFF"></path>
                        <path d="M53.0826111,86.6738889 C70.3413148,86.6738889 84.2970556,72.682037 84.2514269,55.4209259 C84.2079815,38.1598148 70.1800185,24.167963 52.9213148,24.167963 C35.6626111,24.167963 21.7092778,38.1598148 21.7525105,55.4209259 C21.7983519,72.682037 35.8239074,86.6738889 53.0826111,86.6738889 Z" id="Stroke-9" fill="#FFFFFF"></path>
                        <path d="M98.7041852,70.5810926 C100.273815,65.8144259 101.116407,60.7179444 101.101963,55.4216481 C101.080296,46.6297963 98.7017778,38.3892407 94.5658519,31.2970185" id="Stroke-11"></path>
                        <path d="M0,28.8888889 L0,21.6666667 C0,19.9814815 6.50962963,16.8518519 12.037037,16.8518519 C17.5644444,16.8518519 24.0740741,19.9814815 24.0740741,21.6666667 L24.0740741,28.8888889" id="Stroke-13" fill="#FFFFFF"></path>
                        <path d="M19.2592593,7.22222222 C19.2592593,3.55814815 15.7709259,7.10542736e-15 12.037037,7.10542736e-15 C8.30314815,7.10542736e-15 4.81481481,3.55814815 4.81481481,7.22222222 L4.81481481,9.62962963 C4.81481481,13.2937037 8.30314815,16.8518519 12.037037,16.8518519 C15.7709259,16.8518519 19.2592593,13.2937037 19.2592593,9.62962963 L19.2592593,7.22222222 Z" id="Stroke-15" fill="#FFFFFF"></path>
                        <path d="M0,105.925926 L0,98.7037037 C0,97.0185185 6.50962963,93.8888889 12.037037,93.8888889 C17.5644444,93.8888889 24.0740741,97.0185185 24.0740741,98.7037037 L24.0740741,105.925926" id="Stroke-17" fill="#FFFFFF"></path>
                        <path d="M19.2592593,84.2592593 C19.2592593,80.5951852 15.7709259,77.037037 12.037037,77.037037 C8.30314815,77.037037 4.81481481,80.5951852 4.81481481,84.2592593 L4.81481481,86.6666667 C4.81481481,90.3307407 8.30314815,93.8888889 12.037037,93.8888889 C15.7709259,93.8888889 19.2592593,90.3307407 19.2592593,86.6666667 L19.2592593,84.2592593 Z" id="Stroke-19" fill="#FFFFFF"></path>
                        <path d="M7.13748148,70.5810926 C5.56785185,65.8144259 4.72525926,60.7179444 4.7397037,55.4216481 C4.76137037,46.6297963 7.13988889,38.3892407 11.2758148,31.2970185" id="Stroke-21"></path>
                        <path d="M31.2115556,98.4526111 C37.6778519,101.697796 44.9819259,103.517796 52.7169259,103.517796 L53.1261852,103.517796 C60.8611852,103.517796 68.1628519,101.695389 74.6291481,98.4502037" id="Stroke-23"></path>
                        <path d="M28.8147407,13.7508704 C35.919,9.62938889 44.1691852,7.22198148 52.9634444,7.22198148 L52.8791852,7.22198148 C61.6734444,7.22198148 69.9236296,9.60531481 77.0278889,13.7267963" id="Stroke-25"></path>
                        <path d="M52.9179444,24.0853889 C43.5868333,24.0853889 36.0227593,38.0965 36.0227593,55.3792778 C36.0227593,72.6620556 43.5868333,86.6755741 52.9179444,86.6731667 C62.2490556,86.6755741 69.815537,72.6620556 69.815537,55.3792778 C69.815537,38.0965 62.2490556,24.0853889 52.9179444,24.0853889 Z" id="Stroke-27"></path>
                        <line x1="81.8518519" y1="43.3333333" x2="24.0740741" y2="43.3333333" id="Stroke-29"></line>
                        <line x1="81.8518519" y1="67.4074074" x2="24.0740741" y2="67.4074074" id="Stroke-31"></line>
                        <line x1="52.962963" y1="24.0740741" x2="52.962963" y2="86.6666667" id="Stroke-33"></line>
                    </g>
                </g>
            </g>
        </g>
    </g>
</svg>