<?xml version="1.0" encoding="UTF-8"?>
<svg width="130px" height="130px" viewBox="0 0 130 130" version="1.1" xmlns="http://www.w3.org/2000/svg" xmlns:xlink="http://www.w3.org/1999/xlink">
    <title>Perk-1</title>
    <g id="Site" stroke="none" stroke-width="1" fill="none" fill-rule="evenodd">
        <g id="Careers-(desktop)" transform="translate(-1055, -3074)" fill="#FFFFFF" stroke="#1A1A1C" stroke-width="4.81481481">
            <g id="Perks" transform="translate(160, 2894)">
                <g id="Perk" transform="translate(800, 150)">
                    <g id="Perk-1" transform="translate(104.6296, 61.2963)">
                        <path d="M20.0825926,13.1572037 C7.86740741,22.6736852 -2.84217094e-14,37.8018333 -2.84217094e-14,54.6536852 L28.4001852,54.6536852 C28.4001852,47.431463 31.3998148,41.2925741 36.1496296,36.9736852 L20.0825926,13.1572037 Z" id="Stroke-1"></path>
                        <path d="M91.4386296,13.1572037 C103.653815,22.6736852 111.518815,37.8018333 111.518815,54.6536852 L83.121037,54.6536852 C83.121037,47.431463 80.1214074,41.2925741 75.3715926,36.9736852 L91.4386296,13.1572037 Z" id="Stroke-3"></path>
                        <path d="M66.1952778,30.8533333 L82.2647222,7.26074074 C74.5008333,2.65296296 65.4441667,7.10542736e-15 55.7615741,7.10542736e-15 C46.0789815,7.10542736e-15 37.0199074,2.65296296 29.2560185,7.26074074 L45.325463,30.8533333" id="Stroke-5"></path>
                        <path d="M53.5019815,24.1934815 L50.7816111,47.3358889 C48.0540185,49.1992222 46.2869815,52.3505185 46.3808704,55.9014444 C46.5253148,61.4553333 51.1451296,65.844037 56.7014259,65.6995926 C62.2577222,65.5551481 66.6440185,60.9329259 66.4995741,55.3766296 C66.4080926,51.8281111 64.4797593,48.7731111 61.6582778,47.0542222 L58.8801296,23.9647778 L53.5019815,24.1934815 Z" id="Stroke-7"></path>
                    </g>
                </g>
            </g>
        </g>
    </g>
</svg>