<?xml version="1.0" encoding="UTF-8"?>
<svg width="130px" height="130px" viewBox="0 0 130 130" version="1.1" xmlns="http://www.w3.org/2000/svg" xmlns:xlink="http://www.w3.org/1999/xlink">
    <title>Perk-5</title>
    <g id="Site" stroke="none" stroke-width="1" fill="none" fill-rule="evenodd">
        <g id="Careers-(desktop)" transform="translate(-255, -4274)">
            <g id="Perks" transform="translate(160, 2894)">
                <g id="Perk" transform="translate(0, 1350)">
                    <g id="Perk-5" transform="translate(97.4074, 44.4444)">
                        <path d="M110.740741,-1.42108547e-14 L105.925926,7.12592593 C110.439815,10.0340741 113.148148,16.0742593 113.148148,19.0666667 L113.148148,62.4 L108.333333,67.2148148 L96.2962963,62.4 L96.2962963,55.1777778 L86.6666667,50.387037 C85.664021,49.7342143 84.7838001,49.0362611 84.0152806,48.30842 L83.9286296,48.288 L72.2222222,60.1851852 L72.2222222,67.2148148 C82.7546296,76.8877778 74.6633333,101.111111 60.1851852,101.111111 L57.7777778,101.111111 C57.7777778,81.8518519 50.1366667,77.037037 33.7037037,77.037037 L24.0740741,77.037037 L9.62962963,31.2962963 L16.8518519,31.2962963 C31.8451852,31.2962963 36.1111111,26.7727778 48.1481481,16.1705556 C57.7777778,5.70074074 70.2385185,-1.42108547e-14 85.0488889,-1.42108547e-14 L110.740741,-1.42108547e-14 Z" id="Combined-Shape" fill="#FFFFFF"></path>
                        <path d="M84.2592593,28.7925926 C81.1488889,31.0988889 79.4444444,35.3912963 79.4444444,38.3740741 C79.4444444,42.1151852 81.3053704,46.8962963 86.6666667,50.387037 L96.2962963,55.1777778 L96.2962963,62.4 L108.333333,67.2148148 L113.148148,62.4 L113.148148,40.7333333 L113.148148,19.0666667 C113.148148,16.0742593 110.439815,10.0340741 105.925926,7.12592593 L110.740741,-1.42108547e-14 L98.1885185,-1.42108547e-14 L85.0488889,-1.42108547e-14 C70.2385185,-1.42108547e-14 57.7777778,5.70074074 48.1481481,16.1705556 C36.1111111,26.7727778 31.8451852,31.2962963 16.8518519,31.2962963 L9.62962963,31.2962963" id="Stroke-1" stroke="#1A1A1C" stroke-width="4.81481481"></path>
                        <path d="M-1.42108547e-14,48.1481481 L18.9655556,48.1481481 C40.0231481,48.1481481 45.3025926,38.1357407 52.962963,31.2 C60.6233333,24.2642593 65.402037,16.8037037 79.4444444,16.8037037" id="Stroke-3" stroke="#1A1A1C" stroke-width="4.81481481"></path>
                        <line x1="101.111111" y1="26.2886481" x2="105.925926" y2="31.103463" id="Stroke-5" stroke="#1A1A1C" stroke-width="4.81481481"></line>
                        <path d="M50.5572407,53.7913519 C41.9411296,59.4487593 31.8348333,62.5928333 21.6659444,62.5928333 L7.2215,62.5928333" id="Stroke-7" stroke="#1A1A1C" stroke-width="4.81481481"></path>
                        <path d="M84.2592593,48.1481481 L72.2222222,60.1851852 L72.2222222,67.2148148 C82.7546296,76.8877778 74.6633333,101.111111 60.1851852,101.111111 L57.7777778,101.111111 C57.7777778,81.8518519 50.1366667,77.037037 33.7037037,77.037037 L24.0740741,77.037037" id="Stroke-9" stroke="#1A1A1C" stroke-width="4.81481481"></path>
                    </g>
                </g>
            </g>
        </g>
    </g>
</svg>