<?xml version="1.0" encoding="UTF-8"?>
<svg width="130px" height="130px" viewBox="0 0 130 130" version="1.1" xmlns="http://www.w3.org/2000/svg" xmlns:xlink="http://www.w3.org/1999/xlink">
    <title>Perk-12</title>
    <g id="Site" stroke="none" stroke-width="1" fill="none" fill-rule="evenodd">
        <g id="Careers-(desktop)" transform="translate(-255, -3074)">
            <g id="Perks" transform="translate(160, 2894)">
                <g id="Perk" transform="translate(0, 150)">
                    <g id="Perk-12" transform="translate(109.4444, 44.4444)">
                        <path d="M7.22222222,12.037037 L37.3164473,12.037037 L37.3164473,12.037037 L48.2625,-7.10542736e-15 L59.1233189,12.037037 L91.4814815,12.037037 L91.4814815,33.7037037 L0,33.7037037 L0,19.2592593 C-4.88477709e-16,15.2705361 3.23349903,12.037037 7.22222222,12.037037 Z" id="Rectangle" fill="#FFFFFF"></path>
                        <path d="M36.1111111,12.2354074 L7.215,12.2354074 C3.11759259,12.2354074 0,15.3794815 0,19.4576296" id="Stroke-1" stroke="#1A1A1C" stroke-width="4.81481481"></path>
                        <polyline id="Stroke-3" stroke="#1A1A1C" stroke-width="4.81481481" points="91.4814815 26.6798519 91.4814815 12.2354074 60.1851852 12.2354074"></polyline>
                        <polyline id="Stroke-5" stroke="#1A1A1C" stroke-width="4.81481481" fill="#9BCC88" points="74.8583333 26.6885185 48.177037 7.10542736e-15 21.6666667 26.6764815"></polyline>
                        <path d="M98.7037037,70.0131852 L98.7037037,91.6798519 L7.22222222,91.6798519 C3.12481481,91.6798519 0,88.5357778 0,84.4576296 L0,19.4576296 C0,23.5357778 3.12481481,26.6798519 7.22222222,26.6798519 L98.7037037,26.6798519 L98.7037037,45.9391111" id="Stroke-7" stroke="#1A1A1C" stroke-width="4.81481481" fill="#FFFFFF"></path>
                        <path d="M98.7037037,72.4205926 L67.4074074,72.4205926 C60.7605556,72.4205926 55.3703704,67.0304074 55.3703704,60.3835556 L55.3703704,55.5687407 C55.3703704,48.9218889 60.7605556,43.5317037 67.4074074,43.5317037 L98.7037037,43.5317037 C101.363889,43.5317037 103.518519,45.6863333 103.518519,48.3465185 L103.518519,67.6057778 C103.518519,70.265963 101.363889,72.4205926 98.7037037,72.4205926 Z" id="Stroke-9" stroke="#1A1A1C" stroke-width="4.81481481" fill="#FFFFFF"></path>
                        <path d="M77.037037,57.9761481 C77.037037,60.6363333 74.8824074,62.790963 72.2222222,62.790963 L69.8148148,62.790963 C67.1546296,62.790963 65,60.6363333 65,57.9761481 C65,55.315963 67.1546296,53.1613333 69.8148148,53.1613333 L72.2222222,53.1613333 C74.8824074,53.1613333 77.037037,55.315963 77.037037,57.9761481 Z" id="Stroke-11" stroke="#1A1A1C" stroke-width="4.81481481"></path>
                    </g>
                </g>
            </g>
        </g>
    </g>
</svg>