<?xml version="1.0" encoding="UTF-8"?>
<svg width="130px" height="130px" viewBox="0 0 130 130" version="1.1" xmlns="http://www.w3.org/2000/svg" xmlns:xlink="http://www.w3.org/1999/xlink">
    <title>Perk-4</title>
    <g id="Site" stroke="none" stroke-width="1" fill="none" fill-rule="evenodd">
        <g id="Careers-(desktop)" transform="translate(-655, -4274)" stroke="#1A1A1C" stroke-width="4.81481481">
            <g id="Perks" transform="translate(160, 2894)">
                <g id="Perk" transform="translate(400, 1350)">
                    <g id="Perk-4" transform="translate(116.6667, 39.6296)">
                        <path d="M60.5191611,27.0259577 C61.5952723,24.9026244 62.278976,22.7479948 62.6328649,20.4465133 C63.4441611,15.1405874 62.486013,7.83892069 56.6504574,3.34429106 C50.1167537,-1.68959783 37.4249019,-1.71848672 31.4424945,7.97855032 C25.4576797,-1.71848672 12.7658278,-1.68959783 6.23212411,3.34429106 C0.396568556,7.83892069 -0.561579592,15.1405874 0.249716704,20.4465133 C1.85305004,30.9163281 10.30305,38.3094762 31.4424945,53.7024392 C35.06805,51.0615133 38.3204574,48.6565133 41.231013,46.4296614" id="Stroke-9" fill="#FF8EB7"></path>
                        <path d="M43.6677908,101.79931 L43.6677908,96.9844948 C43.6677908,94.9261614 36.8476056,89.0039392 35.1648278,86.3726429 C34.120013,84.7356059 26.8159389,63.8393096 26.8159389,63.8393096 C26.8159389,61.5089392 32.7140871,58.5309762 36.5659389,63.8393096 L42.8589019,73.5893096 L46.0751982,70.5030133 L46.0751982,34.3919022 C46.0751982,31.731717 48.2298278,29.5770874 50.890013,29.5770874 C53.5501982,29.5770874 55.7048278,31.731717 55.7048278,34.3919022 L55.7048278,65.6881985 L55.7048278,63.2807911 L55.7048278,51.243754 L60.5196426,51.243754 C62.0363093,51.243754 64.4124204,52.206717 65.3344574,53.6511614 L70.1492723,53.6511614 C72.405013,53.6511614 74.9640871,55.7576429 74.9640871,58.4659762 L79.7789019,58.4659762 C82.0346426,58.4659762 84.5937167,60.5724577 84.5937167,63.2807911 L84.5937167,87.3548651 C84.5937167,92.2250503 79.7789019,96.1491244 79.7789019,99.3919022 L79.7789019,101.79931" id="Stroke-1" fill="#FFFFFF"></path>
                        <line x1="65.3344574" y1="53.6511614" x2="65.3344574" y2="65.6881985" id="Stroke-3"></line>
                        <line x1="74.9640871" y1="58.4659762" x2="74.9640871" y2="68.0956059" id="Stroke-5"></line>
                        <polyline id="Stroke-7" points="84.5937167 109.021532 84.5937167 101.79931 38.852976 101.79931 38.852976 109.021532"></polyline>
                    </g>
                </g>
            </g>
        </g>
    </g>
</svg>