<?xml version="1.0" encoding="UTF-8"?>
<svg width="130px" height="130px" viewBox="0 0 130 130" version="1.1" xmlns="http://www.w3.org/2000/svg" xmlns:xlink="http://www.w3.org/1999/xlink">
    <title>Perk-10</title>
    <g id="Site" stroke="none" stroke-width="1" fill="none" fill-rule="evenodd">
        <g id="Careers-(desktop)" transform="translate(-655, -3474)">
            <g id="Perks" transform="translate(160, 2894)">
                <g id="Perk" transform="translate(400, 550)">
                    <g id="Perk-10" transform="translate(119.0741, 44.4444)">
                        <path d="M8.42592593,-7.10542736e-15 C11.7498619,-7.71602449e-15 14.4444444,2.69458252 14.4444444,6.01851852 L14.4444444,101.111111 L14.4444444,101.111111 L2.40740741,101.111111 L2.40740741,6.01851852 C2.40740741,2.69458252 5.10198993,-6.6983626e-15 8.42592593,-7.10542736e-15 Z" id="Rectangle" fill="#FFFFFF"></path>
                        <path d="M83.0533889,56.0531111 C77.0011667,57.8345926 68.8280185,59.4692222 61.3963519,58.0007037 L61.3891296,57.9982963 L61.3891296,40.4747778 C49.8576481,32.0584815 13.2987593,31.4518148 1.20394444,39.1603333 L1.20394444,63.0562593 C11.8109815,58.4460741 30.4996852,56.264963 46.896537,59.5101481 C46.896537,59.5101481 46.9446852,76.8868148 46.9446852,77.5007037 C53.1630185,86.4297778 77.2370926,85.124963 90.2780185,77.5007037 C85.8219074,70.8177407 83.7057963,63.2681111 83.0533889,56.0531111" id="Yellow" fill="#FFFF00"></path>
                        <path d="M85.462963,34.1683333 C75.725,36.932037 66.2398148,36.5227778 61.3888889,34.2838889 L61.3888889,17.3381481 C49.5516667,8.11055556 10.6335185,7.42685185 1.2037037,16.8566667 L1.2037037,39.1588889 C13.2696296,31.472037 49.672037,32.057037 61.2974074,40.4131481 L61.2974074,40.4757407 C61.3262963,40.4974074 61.3792593,40.5214815 61.4201852,40.5455556 L61.3961111,57.9992593 C68.8277778,59.4701852 77.0009259,57.8355556 83.0531481,56.0540741 C82.2972222,47.6738889 83.5225926,39.7462963 85.462963,34.1683333" id="Blue" fill="#45AFFF"></path>
                        <path d="M61.3888889,63.0572222 L61.3961111,57.9992593 C61.3937037,57.9992593 61.3912963,57.9992593 61.3888889,57.9992593 L61.3888889,63.0572222 Z" id="Fill-1"></path>
                        <path d="M61.3961111,57.9997407 L61.4201852,40.4978889 C61.4105556,40.4906667 61.3985185,40.4834444 61.3888889,40.4738148 L61.3888889,57.9973333 C61.3912963,57.9997407 61.3937037,57.9997407 61.3961111,57.9997407" id="Fill-3"></path>
                        <line x1="15.6481481" y1="57.7777778" x2="15.6481481" y2="101.111111" id="Stroke-9" stroke="#1A1A1C" stroke-width="4.81481481" stroke-linejoin="round"></line>
                        <line x1="1.2037037" y1="57.7777778" x2="1.2037037" y2="101.111111" id="Stroke-11" stroke="#1A1A1C" stroke-width="4.81481481" stroke-linejoin="round"></line>
                        <path d="M46.9444444,65 L46.9444444,77.037037 C53.1627778,85.9637037 77.2368519,84.6612963 90.2777778,77.037037 C80.6481481,62.5925926 81.8518519,44.0844444 85.462963,33.7037037 C75.6455556,36.4914815 66.2037037,36.1111111 61.3888889,33.8240741" id="Stroke-13" stroke="#1A1A1C" stroke-width="4.81481481" stroke-linejoin="round"></path>
                        <polyline id="Stroke-15" stroke="#1A1A1C" stroke-width="4.81481481" stroke-linejoin="round" points="61.4406481 26.4862963 61.3900926 62.5925926 61.3900926 65 49.3000926 77.037037 46.9456481 74.6296296 46.8926852 57.7777778"></polyline>
                        <path d="M61.3888889,16.8737593 C49.5516667,7.64616667 10.6335185,6.96246296 1.2037037,16.3922778 L1.2037037,62.5928333 C14.4998148,56.8126481 40.4974074,54.8217222 58.7551852,62.5928333 L61.3888889,62.5928333 L61.3888889,16.8737593 Z" id="Stroke-17" stroke="#1A1A1C" stroke-width="4.81481481" stroke-linejoin="round"></path>
                        <path d="M1.2037037,16.8518519 L1.2037037,7.22222222 C1.2037037,3.23314815 4.43685185,-7.10542736e-15 8.42592593,-7.10542736e-15 C12.415,-7.10542736e-15 15.6481481,3.23314815 15.6481481,7.22222222 L15.6481481,9.62962963" id="Stroke-19" stroke="#1A1A1C" stroke-width="4.81481481" stroke-linejoin="round"></path>
                    </g>
                </g>
            </g>
        </g>
    </g>
</svg>