<?xml version="1.0" encoding="UTF-8"?>
<svg width="130px" height="130px" viewBox="0 0 130 130" version="1.1" xmlns="http://www.w3.org/2000/svg" xmlns:xlink="http://www.w3.org/1999/xlink">
    <title>Perk-6</title>
    <g id="Site" stroke="none" stroke-width="1" fill="none" fill-rule="evenodd">
        <g id="Careers-(desktop)" transform="translate(-255, -3874)">
            <g id="Perks" transform="translate(160, 2894)">
                <g id="Perk" transform="translate(0, 950)">
                    <g id="Perk-6" transform="translate(107.037, 39.6296)">
                        <path d="M52.962963,31.2962963 C59.7402878,31.2962963 71.3425527,33.979102 75.4992898,39.2281326 C77.4534828,39.048759 79.5623395,38.852318 81.8518519,38.6388889 C82.7040741,38.5594444 83.5153704,38.5185185 84.2592593,38.5185185 C91.7848148,38.5185185 105.925926,42.6038889 105.925926,50.5555556 L105.925926,72.2222222 C105.925926,76.9046296 100.978704,79.4444444 96.2962963,79.4444444 L96.2962963,110.740741 L9.62962963,110.740741 L9.62962963,79.4444444 C4.94722222,79.4444444 0,76.9046296 0,72.2222222 L0,50.5555556 C0,42.6038889 14.1411111,38.5185185 21.6666667,38.5185185 C22.4105556,38.5185185 23.2218519,38.5594444 24.0740741,38.6388889 C26.3631991,38.8522819 28.4717295,39.0486926 30.4284096,39.2281209 C34.5833733,33.979102 46.1856381,31.2962963 52.962963,31.2962963 Z" id="Combined-Shape" fill="#FFFFFF"></path>
                        <path d="M67.4074074,74.6296296 C72.6098148,74.6296296 77.037037,69.6824074 77.037037,65 L77.037037,43.3333333 C77.037037,35.3816667 61.3262963,31.2962963 52.962963,31.2962963 C44.5996296,31.2962963 28.8888889,35.3816667 28.8888889,43.3333333 L28.8888889,65 C28.8888889,69.6824074 33.3161111,74.6296296 38.5185185,74.6296296" id="Stroke-1" stroke="#1A1A1C" stroke-width="4.81481481" stroke-linejoin="round"></path>
                        <path d="M96.2962963,79.4444444 C100.978704,79.4444444 105.925926,76.9046296 105.925926,72.2222222 L105.925926,50.5555556 C105.925926,42.6038889 91.7848148,38.5185185 84.2592593,38.5185185 C83.5153704,38.5185185 82.7040741,38.5594444 81.8518519,38.6388889" id="Stroke-3" stroke="#1A1A1C" stroke-width="4.81481481" stroke-linejoin="round"></path>
                        <path d="M52.962963,24.0740741 C58.5746296,24.0740741 62.5925926,20.1427778 62.5925926,14.4444444 L62.5925926,9.62962963 C62.5925926,3.9312963 58.5746296,7.10542736e-15 52.962963,7.10542736e-15 C47.3512963,7.10542736e-15 43.3333333,3.9312963 43.3333333,9.62962963 L43.3333333,14.4444444 C43.3333333,20.1427778 47.3512963,24.0740741 52.962963,24.0740741 Z" id="Stroke-5" stroke="#1A1A1C" stroke-width="4.81481481" fill="#FFFFFF" stroke-linejoin="round"></path>
                        <line x1="96.2962963" y1="110.740741" x2="96.2962963" y2="55.3703704" id="Stroke-7" stroke="#1A1A1C" stroke-width="4.81481481" stroke-linejoin="round"></line>
                        <line x1="67.4074074" y1="110.740741" x2="67.4074074" y2="48.1481481" id="Stroke-9" stroke="#1A1A1C" stroke-width="4.81481481" stroke-linejoin="round"></line>
                        <line x1="38.5185185" y1="48.1481481" x2="38.5185185" y2="110.740741" id="Stroke-11" stroke="#1A1A1C" stroke-width="4.81481481" stroke-linejoin="round"></line>
                        <line x1="52.962963" y1="72.2222222" x2="52.962963" y2="110.740741" id="Stroke-13" stroke="#1A1A1C" stroke-width="4.81481481" stroke-linejoin="round"></line>
                        <path d="M84.2592593,31.2962963 C89.8709259,31.2962963 93.8888889,27.365 93.8888889,21.6666667 L93.8888889,16.8518519 C93.8888889,11.1535185 89.8709259,7.22222222 84.2592593,7.22222222 C78.6475926,7.22222222 74.6296296,11.1535185 74.6296296,16.8518519 L74.6296296,21.6666667 C74.6296296,27.365 78.6475926,31.2962963 84.2592593,31.2962963 Z" id="Stroke-15" stroke="#1A1A1C" stroke-width="4.81481481" fill="#FFFFFF" stroke-linejoin="round"></path>
                        <path d="M9.62962963,79.4444444 C4.94722222,79.4444444 0,76.9046296 0,72.2222222 L0,50.5555556 C0,42.6038889 14.1411111,38.5185185 21.6666667,38.5185185 C22.4105556,38.5185185 23.2218519,38.5594444 24.0740741,38.6388889" id="Stroke-17" stroke="#1A1A1C" stroke-width="4.81481481" stroke-linejoin="round"></path>
                        <line x1="9.62962963" y1="110.740741" x2="9.62962963" y2="55.3703704" id="Stroke-19" stroke="#1A1A1C" stroke-width="4.81481481" stroke-linejoin="round"></line>
                        <path d="M21.6666667,31.2962963 C16.055,31.2962963 12.037037,27.365 12.037037,21.6666667 L12.037037,16.8518519 C12.037037,11.1535185 16.055,7.22222222 21.6666667,7.22222222 C27.2783333,7.22222222 31.2962963,11.1535185 31.2962963,16.8518519 L31.2962963,21.6666667 C31.2962963,27.365 27.2783333,31.2962963 21.6666667,31.2962963 Z" id="Stroke-21" stroke="#1A1A1C" stroke-width="4.81481481" fill="#FFFFFF" stroke-linejoin="round"></path>
                    </g>
                </g>
            </g>
        </g>
    </g>
</svg>