<?xml version="1.0" encoding="UTF-8"?>
<svg width="130px" height="130px" viewBox="0 0 130 130" version="1.1" xmlns="http://www.w3.org/2000/svg" xmlns:xlink="http://www.w3.org/1999/xlink">
    <title>Perk-2</title>
    <g id="Site" stroke="none" stroke-width="1" fill="none" fill-rule="evenodd" stroke-linejoin="round">
        <g id="Careers-(desktop)" transform="translate(-655, -3074)" fill="#FFFFFF" stroke="#1A1A1C" stroke-width="4.81481481">
            <g id="Perks" transform="translate(160, 2894)">
                <g id="Perk" transform="translate(400, 150)">
                    <g id="Perk-2" transform="translate(119.0741, 42.037)">
                        <path d="M74.1113422,82.822037 C81.6393052,74.4562963 88.6328237,55.4064815 76.3261571,44.4262963 C76.1456015,52.6933333 68.6730089,55.8494444 65.4928237,55.327037 C61.0535645,54.5975926 57.9311571,49.802037 58.9928237,44.4262963 C60.052083,39.052963 65.3628237,30.2611111 61.5615274,25.0972222 C54.3657867,15.3207407 43.1809719,11.8083333 43.9946756,-7.10542736e-15 C30.4794904,5.04111111 27.9252311,18.1494444 31.4448608,25.0972222 C34.9235645,31.9607407 34.0737497,42.6664815 26.4904163,42.6664815 C21.0063422,42.6664815 17.3494904,35.3262963 17.8237497,26.9485185 C9.69874966,31.3757407 7.78245336,36.7707407 7.78245336,40.9259259 C7.78245336,47.0575926 14.0874534,49.647963 15.657083,53.1459259 C17.4193052,57.07 15.1587497,61.2877778 11.3237497,61.8655556 C9.58800892,62.127963 5.09337929,60.7316667 2.65708299,55.327037 C-4.0981022,64.5305556 3.21078669,78.4309259 11.3694904,85.3305556" id="Stroke-7"></path>
                        <path d="M39.0787497,93.8900926 L27.2415274,104.232315 C24.5596756,106.572315 20.5152311,106.406204 18.0356015,103.849537 C15.3946756,101.126759 15.5463422,96.7525 18.3678237,94.2150926 L29.44912,84.260463" id="Stroke-1"></path>
                        <path d="M46.3009719,67.4086111 L47.8898608,66.0676852 C50.6415274,63.744537 54.73412,64.0021296 57.1728237,66.6502778 L57.1728237,66.6526852 C59.5946756,69.2815741 59.5344904,73.3452778 57.0380089,75.9019444 L55.9306015,77.0382407" id="Stroke-3"></path>
                        <path d="M25.3919163,74.0458333 L56.2813608,103.24287 C58.9102497,105.727315 63.0461756,105.643056 65.571546,103.052685 C68.1691385,100.387685 68.0632126,96.1097222 65.33562,93.5771296 L34.1933978,64.6521296 C31.5837682,62.2302778 27.5032126,62.3843519 25.0861756,64.9987963 C22.6932126,67.5891667 22.8280274,71.6239815 25.3919163,74.0458333 Z" id="Stroke-5"></path>
                    </g>
                </g>
            </g>
        </g>
    </g>
</svg>