<?xml version="1.0" encoding="UTF-8"?>
<svg width="130px" height="130px" viewBox="0 0 130 130" version="1.1" xmlns="http://www.w3.org/2000/svg" xmlns:xlink="http://www.w3.org/1999/xlink">
    <title>Perk-11</title>
    <g id="Site" stroke="none" stroke-width="1" fill="none" fill-rule="evenodd">
        <g id="Careers-(desktop)" transform="translate(-255, -3474)" stroke="#1A1A1C" stroke-width="4.81481481">
            <g id="Perks" transform="translate(160, 2894)">
                <g id="Perk" transform="translate(0, 550)">
                    <g id="Perk-11" transform="translate(111.8519, 46.8519)">
                        <path d="M14.4444444,12.037037 L4.81481481,12.037037 C2.15462963,12.037037 0,14.1916667 0,16.8518519 L0,91.4814815 C0,94.1416667 2.15462963,96.2962963 4.81481481,96.2962963 L91.4814815,96.2962963 C94.1416667,96.2962963 96.2962963,94.1416667 96.2962963,91.4814815 L96.2962963,16.8518519 C96.2962963,14.1916667 94.1416667,12.037037 91.4814815,12.037037 L81.8518519,12.037037" id="Stroke-4" fill="#FFFFFF"></path>
                        <line x1="96.2962963" y1="36.1111111" x2="0" y2="36.1111111" id="Stroke-1"></line>
                        <line x1="67.4074074" y1="12.037037" x2="28.8888889" y2="12.037037" id="Stroke-3"></line>
                        <path d="M79.4444444,0 L69.8148148,0 C68.4859259,0 67.4074074,1.07851852 67.4074074,2.40740741 L67.4074074,19.2592593 L81.8518519,19.2592593 L81.8518519,2.40740741 C81.8518519,1.07851852 80.7733333,0 79.4444444,0 Z" id="Stroke-6" fill="#FFFFFF"></path>
                        <path d="M26.4814815,0 L16.8518519,0 C15.522963,0 14.4444444,1.07851852 14.4444444,2.40740741 L14.4444444,19.2592593 L28.8888889,19.2592593 L28.8888889,2.40740741 C28.8888889,1.07851852 27.8103704,0 26.4814815,0 Z" id="Stroke-8" fill="#FFFFFF"></path>
                        <line x1="33.7037037" y1="52.962963" x2="43.3333333" y2="52.962963" id="Stroke-10"></line>
                        <line x1="52.962963" y1="52.962963" x2="62.5925926" y2="52.962963" id="Stroke-12"></line>
                        <line x1="72.2222222" y1="52.962963" x2="81.8518519" y2="52.962963" id="Stroke-14"></line>
                        <line x1="14.4444444" y1="65" x2="24.0740741" y2="65" id="Stroke-16"></line>
                        <line x1="33.7037037" y1="65" x2="43.3333333" y2="65" id="Stroke-18"></line>
                        <line x1="52.962963" y1="65" x2="62.5925926" y2="65" id="Stroke-20"></line>
                        <line x1="72.2222222" y1="65" x2="81.8518519" y2="65" id="Stroke-22"></line>
                        <line x1="14.4444444" y1="77.037037" x2="24.0740741" y2="77.037037" id="Stroke-24"></line>
                        <line x1="33.7037037" y1="77.037037" x2="43.3333333" y2="77.037037" id="Stroke-26"></line>
                        <line x1="52.962963" y1="77.037037" x2="62.5925926" y2="77.037037" id="Stroke-28"></line>
                    </g>
                </g>
            </g>
        </g>
    </g>
</svg>