<?xml version="1.0" encoding="UTF-8"?>
<svg width="130px" height="130px" viewBox="0 0 130 130" version="1.1" xmlns="http://www.w3.org/2000/svg" xmlns:xlink="http://www.w3.org/1999/xlink">
    <title>Perk-9</title>
    <g id="Site" stroke="none" stroke-width="1" fill="none" fill-rule="evenodd" stroke-linejoin="round">
        <g id="Careers-(desktop)" transform="translate(-1055, -3474)" stroke="#1A1A1C" stroke-width="4.81481481">
            <g id="Perks" transform="translate(160, 2894)">
                <g id="Perk" transform="translate(800, 550)">
                    <g id="Perk-9" transform="translate(109.4444, 44.4444)">
                        <path d="M101.111111,50.5555556 C101.111111,78.477019 78.477019,101.111111 50.5555556,101.111111 C22.6340921,101.111111 0,78.477019 0,50.5555556 C0,22.6340921 22.6340921,0 50.5555556,0 C78.477019,0 101.111111,22.6340921 101.111111,50.5555556 Z" id="Stroke-1" fill="#FFFFFF"></path>
                        <polygon id="Stroke-3" fill="#7FFAB5" points="59.1869919 41.9241192 59.1869919 22.195122 41.9241192 22.195122 41.9241192 41.9241192 22.195122 41.9241192 22.195122 59.1869919 41.9241192 59.1869919 41.9241192 78.9159892 59.1869919 78.9159892 59.1869919 59.1869919 78.9159892 59.1869919 78.9159892 41.9241192"></polygon>
                    </g>
                </g>
            </g>
        </g>
    </g>
</svg>