<?xml version="1.0" encoding="UTF-8"?>
<svg width="130px" height="130px" viewBox="0 0 130 130" version="1.1" xmlns="http://www.w3.org/2000/svg" xmlns:xlink="http://www.w3.org/1999/xlink">
    <title>Perk-8</title>
    <g id="Site" stroke="none" stroke-width="1" fill="none" fill-rule="evenodd" stroke-linejoin="round">
        <g id="Careers-(desktop)" transform="translate(-1055, -3874)" stroke="#1A1A1C" stroke-width="4.81481481">
            <g id="Perks" transform="translate(160, 2894)">
                <g id="Perk" transform="translate(800, 950)">
                    <g id="Perk-8" transform="translate(104.6296, 54.0741)">
                        <path d="M91.4937593,-7.10542736e-15 C81.4620926,7.73018519 70.2628333,14.287963 58.0139444,19.3868519 C42.7991296,25.7207407 27.1269074,29.3174074 11.5485741,30.4055556" id="Stroke-1"></path>
                        <polyline id="Stroke-3" fill="#FCD8B7" points="31.2163704 49.8311667 26.7626667 82.7500556 16.7069259 71.2137593 3.94766667 79.6637593 8.40137037 46.7448704"></polyline>
                        <path d="M66.6122407,48.346037 L69.7490926,81.4165926 L57.998537,72.9425185 C57.6181667,72.6704815 57.0957593,72.7186296 56.7755741,73.0580741 L46.8281667,83.5904815 L43.6913148,50.5199259" id="Stroke-5" fill="#AAD5FF"></path>
                        <polyline id="Stroke-7" fill="#FFABE3" points="99.8159259 38.1918333 110.468704 69.6566481 96.3324074 63.7970185 88.6624074 77.0401667 78.0096296 45.5753519"></polyline>
                        <path d="M89.4505926,32.2416852 L78.3091111,10.0020556 M60.6652222,18.4472407 L69.6448519,37.4898333 M52.8868889,40.8746481 L46.540963,24.6776111 M28.0255926,30.0413148 L31.2202222,41.7220556" id="Stroke-9"></path>
                        <path d="M108.205741,33.5826111 C87.7909259,44.2498333 64.5714815,50.2803889 39.9412963,50.2803889 C26.1011111,50.2803889 12.7038889,48.3761296 0,44.8131667" id="Stroke-11"></path>
                    </g>
                </g>
            </g>
        </g>
    </g>
</svg>