<?xml version="1.0" encoding="UTF-8"?>
<svg width="802px" height="802px" viewBox="0 0 802 802" version="1.1" xmlns="http://www.w3.org/2000/svg" xmlns:xlink="http://www.w3.org/1999/xlink">
    <title>Rays-L</title>
    <g id="Home" stroke="none" stroke-width="1" fill="none" fill-rule="evenodd" opacity="0.5">
        <g id="Desktop" transform="translate(-258, -339)" stroke="#000000" stroke-width="2">
            <g id="Group-35" transform="translate(259, 340)">
                <path d="M800,400 C800,620.914 620.914,800 400,800 C179.086,800 0,620.914 0,400 C0,179.086 179.086,0 400,0 C620.914,0 800,179.086 800,400 Z" id="Stroke-1"></path>
                <path d="M775.000222,399.5966 C775.223,606.7036 607.51,774.7776 400.403,774.999822 C193.297,775.2226 25.223,607.5106 24.9997779,400.4036 C24.777,193.2966 192.49,25.2226 399.597,24.9993799 C606.703,24.7776 774.777,192.4896 775.000222,399.5966 Z" id="Stroke-3"></path>
                <path d="M750.000952,399.1932 C750.446,592.4932 594.107,749.5542 400.807,750.001148 C207.507,750.4452 50.446,594.1062 49.9990481,400.8072 C49.554,207.5072 205.893,50.4452 399.193,49.9992481 C592.493,49.5542 749.554,205.8932 750.000952,399.1932 Z" id="Stroke-5"></path>
                <path d="M725.002299,398.7898 C725.668,578.2828 580.703,724.3318 401.21,725.002106 C221.718,725.6688 75.668,580.7028 74.9977006,401.2098 C74.332,221.7178 219.297,75.6688 398.79,74.9975006 C578.282,74.3318 724.332,219.2968 725.002299,398.7898 Z" id="Stroke-7"></path>
                <path d="M700.004431,398.3863 C700.891,564.0713 567.299,699.1083 401.614,700.004731 C235.928,700.8913 100.891,567.2993 99.9955689,401.6133 C99.109,235.9283 232.701,100.8913 398.386,99.9958689 C564.072,99.1093 699.109,232.7013 700.004431,398.3863 Z" id="Stroke-9"></path>
                <path d="M675,397.9829 C676.114,549.8609 553.895,673.8859 402.017,674.9999 C250.139,676.1139 126.114,553.8949 125,402.0169 C123.886,250.1389 246.105,126.1139 397.983,124.9999 C549.861,123.8859 673.886,246.1049 675,397.9829 Z" id="Stroke-11"></path>
                <path d="M650,397.5795 C651.337,535.6505 540.492,648.6635 402.421,650.0005 C264.349,651.3365 151.337,540.4915 150,402.4205 C148.663,264.3495 259.508,151.3365 397.579,150.0005 C535.651,148.6635 648.663,259.5085 650,397.5795 Z" id="Stroke-13"></path>
                <path d="M625,397.1761 C626.56,521.4401 527.088,623.4401 402.824,625.0001 C278.56,626.5601 176.56,527.0881 175,402.8241 C173.44,278.5601 272.912,176.5601 397.176,175.0001 C521.44,173.4401 623.44,272.9121 625,397.1761 Z" id="Stroke-15"></path>
                <path d="M600,396.7727 C601.782,507.2297 513.684,598.2177 403.227,599.9997 C292.77,601.7827 201.782,513.6847 200,403.2277 C198.218,292.7707 286.316,201.7827 396.773,199.9997 C507.23,198.2177 598.218,286.3157 600,396.7727 Z" id="Stroke-17"></path>
                <path d="M575,396.3693 C577.005,493.0193 500.281,572.9953 403.631,575.0003 C306.981,577.0053 227.005,500.2803 225,403.6303 C222.995,306.9813 299.719,227.0053 396.369,225.0003 C493.019,222.9953 572.995,299.7193 575,396.3693 Z" id="Stroke-19"></path>
                <path d="M550,395.9659 C552.228,478.8089 486.877,547.7719 404.034,549.9999 C321.191,552.2279 252.228,486.8769 250,404.0339 C247.772,321.1919 313.123,252.2279 395.966,249.9999 C478.809,247.7719 547.772,313.1229 550,395.9659 Z" id="Stroke-21"></path>
                <path d="M525,395.5624 C527.451,464.5984 473.473,522.5494 404.438,525.0004 C335.402,527.4504 277.451,473.4734 275,404.4374 C272.549,335.4024 326.527,277.4504 395.562,275.0004 C464.598,272.5494 522.549,326.5264 525,395.5624 Z" id="Stroke-23"></path>
                <path d="M500,395.159 C502.674,450.387 460.069,497.326 404.841,500 C349.613,502.674 302.674,460.069 300,404.841 C297.326,349.613 339.931,302.674 395.159,300 C450.387,297.326 497.326,339.931 500,395.159 Z" id="Stroke-25"></path>
                <path d="M475,394.7556 C477.896,436.1766 446.666,472.1036 405.244,474.9996 C363.823,477.8966 327.896,446.6656 325,405.2446 C322.104,363.8226 353.334,327.8966 394.756,324.9996 C436.177,322.1036 472.104,353.3346 475,394.7556 Z" id="Stroke-27"></path>
                <path d="M450,394.3522 C453.119,421.9662 433.262,446.8812 405.648,450.0002 C378.034,453.1192 353.119,433.2622 350,405.6482 C346.881,378.0332 366.738,353.1192 394.352,350.0002 C421.966,346.8812 446.881,366.7382 450,394.3522 Z" id="Stroke-29"></path>
                <path d="M425,393.9488 C428.342,407.7558 419.858,421.6578 406.051,424.9998 C392.244,428.3418 378.342,419.8588 375,406.0508 C371.658,392.2438 380.142,378.3418 393.949,374.9998 C407.756,371.6578 421.658,380.1418 425,393.9488 Z" id="Stroke-31"></path>
            </g>
        </g>
    </g>
</svg>