<?xml version="1.0" encoding="UTF-8"?>
<svg width="458px" height="459px" viewBox="0 0 458 459" version="1.1" xmlns="http://www.w3.org/2000/svg" xmlns:xlink="http://www.w3.org/1999/xlink">
    <title>Rays-M</title>
    <g id="Home" stroke="none" stroke-width="1" fill="none" fill-rule="evenodd" opacity="0.5">
        <g id="Desktop" transform="translate(-491, -96)" stroke="#000000" stroke-width="2">
            <g id="Rays-M" transform="translate(492, 97.86)">
                <path d="M456,228 C456,353.92098 353.92098,456 228,456 C102.07902,456 0,353.92098 0,228 C0,102.07902 102.07902,-1.42108547e-14 228,-1.42108547e-14 C353.92098,-1.42108547e-14 456,102.07902 456,228 Z" id="Stroke-1"></path>
                <path d="M430.667056,227.591196 C430.892355,339.520956 340.338735,430.441086 228.408975,430.667227 C116.479215,430.892526 25.559085,340.338336 25.3329439,228.408576 C25.107645,116.478816 115.661265,25.559256 227.591025,25.3331149 C339.520785,25.107816 430.440915,115.661436 430.667056,227.591196 Z" id="Stroke-3"></path>
                <path d="M405.335251,227.182392 C405.784767,325.120932 326.755977,404.881602 228.817437,405.334971 C130.878897,405.785052 51.118227,326.756262 50.6648625,228.817722 C50.215347,130.879182 129.244137,51.117942 227.182677,50.6645775 C325.120647,50.215062 404.881887,129.243852 405.335251,227.182392 Z" id="Stroke-5"></path>
                <path d="M380.000019,226.773588 C380.677179,310.720908 313.173789,379.322688 229.226469,379.999848 C145.279149,380.677008 76.677369,313.173618 76.000209,229.226298 C75.322479,145.278978 142.826439,76.677198 226.773759,76.000038 C310.721079,75.322878 379.322859,142.826268 380.000019,226.773588 Z" id="Stroke-7"></path>
                <path d="M354.666654,226.364841 C355.569534,296.320941 299.590974,353.763831 229.635444,354.666711 C159.679344,355.569591 102.236454,299.591031 101.333574,229.634931 C100.430124,159.679401 156.408684,102.236511 226.364784,101.333631 C296.320884,100.430181 353.763774,156.408741 354.666654,226.364841 Z" id="Stroke-9"></path>
                <path d="M329.333346,225.956037 C330.461946,281.920917 286.008786,328.204347 230.043906,329.333517 C174.079026,330.462117 127.795596,286.008957 126.666426,230.044077 C125.537826,174.079197 169.990986,127.795767 225.955866,126.666597 C281.920746,125.537997 328.204746,169.991157 329.333346,225.956037 Z" id="Stroke-11"></path>
                <path d="M303.999981,225.547233 C305.354871,267.520893 272.426541,302.645433 230.452881,303.999753 C188.479221,305.354643 153.354681,272.426313 151.999791,230.452653 C150.645471,188.478993 183.573801,153.354453 225.547461,152.000133 C267.521121,150.645243 302.645091,183.573573 303.999981,225.547233 Z" id="Stroke-13"></path>
                <path d="M278.666673,225.138429 C280.247283,253.120869 258.843783,277.086519 230.861343,278.666559 C202.878903,280.247169 178.913823,258.844239 177.333213,230.861799 C175.753173,202.879359 197.156103,178.913709 225.138543,177.333099 C253.120983,175.753059 277.086063,197.155989 278.666673,225.138429 Z" id="Stroke-15"></path>
                <path d="M253.333365,224.729625 C255.139695,238.720845 245.261595,251.527035 231.270375,253.333365 C217.279155,255.139695 204.472965,245.261595 202.666635,231.270375 C200.860305,217.279155 210.738405,204.472965 224.729625,202.666635 C238.720845,200.860305 251.527035,210.738405 253.333365,224.729625 Z" id="Stroke-17"></path>
            </g>
        </g>
    </g>
</svg>