<?xml version="1.0" encoding="UTF-8"?>
<svg width="386px" height="53px" viewBox="0 0 386 53" version="1.1" xmlns="http://www.w3.org/2000/svg" xmlns:xlink="http://www.w3.org/1999/xlink">
    <title>Voiceitt-Logo</title>
    <g id="Site" stroke="none" stroke-width="1" fill="none" fill-rule="evenodd">
        <g id="Job-(desktop)" transform="translate(-527, -170)">
            <g id="Voiceitt-Logo" transform="translate(527, 170)">
                <path d="M362.94808,24.2117826 L362.94808,47.3320725 C362.94808,50.0296957 365.150853,52.2160097 367.86572,52.2160097 L386,52.2160097 L386,43.897058 L372.6444,43.897058 L372.6444,24.2117826 L384.546067,24.2117826 L384.546067,15.7850386 L372.600653,15.7850386 L372.600653,4.97995169 L362.984107,8.06931401 L362.984107,15.7850386 L354.40976,15.7850386 L354.40976,24.2117826 L362.953227,24.2117826 L362.94808,24.2117826 Z" id="Path" fill="#FFFFFF" fill-rule="nonzero"></path>
                <path d="M327.870973,24.2117826 L327.870973,47.3320725 C327.870973,50.0296957 330.071173,52.2160097 332.788613,52.2160097 L350.922893,52.2160097 L350.922893,43.897058 L337.567293,43.897058 L337.567293,24.2117826 L349.466387,24.2117826 L349.466387,15.7850386 L337.523547,15.7850386 L337.523547,4.97995169 L327.904427,8.06931401 L327.904427,15.7850386 L319.33008,15.7850386 L319.33008,24.2117826 L327.873547,24.2117826 L327.870973,24.2117826 Z" id="Path" fill="#FFFFFF" fill-rule="nonzero"></path>
                <path d="M286.607573,36.0735411 C287.919973,14.5901063 268.468147,15.0243478 267.86856,15.0243478 C265.848493,15.0243478 249.188733,14.9244928 248.83104,33.741285 C248.83104,33.741285 247.40284,52.2467343 267.742467,52.9884783 L267.742467,53 C267.788787,53 267.827387,52.9961594 267.86856,52.9961594 C267.912307,52.9961594 267.950907,53 267.99208,53 L267.99208,52.9884783 C280.820147,52.9884783 285.6786,45.5147101 286.337373,39.4358406 L276.888093,39.3820725 C276.118667,42.4253478 273.9442,45.5607971 267.688427,45.5607971 L267.680707,45.5723188 C267.634387,45.5723188 267.595787,45.5684783 267.549467,45.5646377 C267.503147,45.5646377 267.461973,45.5684783 267.415653,45.5723188 L267.407933,45.5607971 C260.176867,45.5607971 258.529933,39.3091014 258.161947,36.0236135 L286.0646,36.0735411 L286.610147,36.0735411 L286.607573,36.0735411 Z M258.509347,30.4865217 C260.41104,23.3164155 267.580347,23.4201111 267.827387,23.4280483 C268.079573,23.4239517 275.192267,22.7631159 276.93956,30.4865217 L258.509347,30.4865217 Z" id="Shape" fill="#FFFFFF" fill-rule="nonzero"></path>
                <path d="M192.825785,5.65999034 C192.825785,8.78596618 189.948541,11.3199807 186.399143,11.3199807 C182.850001,11.3199807 179.972757,8.78596618 179.972757,5.65999034 C179.972757,2.53401449 182.850001,0 186.399143,0 C189.948541,0 192.825785,2.53401449 192.825785,5.65999034 Z M191.873909,20.5074155 L191.873909,43.9198454 L201.914027,43.9198454 L201.914027,52.2121691 L172.458881,52.2121691 L172.458881,43.9198454 L182.623033,43.9198454 L182.623033,24.1462367 L174.095521,24.1462367 L174.095521,15.6234783 L186.956269,15.6234783 C189.672423,15.6234783 191.873909,17.8100483 191.873909,20.5074155 Z" id="Shape" fill="#FFFFFF"></path>
                <path d="M311.357893,5.65999034 C311.357893,8.78596618 308.480907,11.3199807 304.93228,11.3199807 C301.383653,11.3199807 298.504093,8.78596618 298.504093,5.65999034 C298.504093,2.53401449 301.383653,0 304.93228,0 C308.480907,0 311.357893,2.53401449 311.357893,5.65999034 Z M310.408333,20.5074155 L310.408333,43.9198454 L320.44948,43.9198454 L320.44948,52.2121691 L290.995107,52.2121691 L290.995107,43.9198454 L301.1572,43.9198454 L301.1572,24.1462367 L292.631747,24.1462367 L292.631747,15.6234783 L305.490693,15.6234783 C308.208133,15.6234783 310.408333,17.8100483 310.408333,20.5074155 Z" id="Shape" fill="#FFFFFF"></path>
                <path d="M233.67668,37.6486908 C232.902107,40.6919662 230.683893,44.5653188 224.39724,44.5653188 L224.38952,44.5768406 C224.3432,44.5768406 224.302027,44.573 224.25828,44.5691594 C224.21196,44.5691594 224.17336,44.573 224.12704,44.5768406 L224.11932,44.5653188 C214.317493,44.5653188 214.43844,34.0636377 214.43844,34.0636377 C214.58512,23.2815942 223.97264,23.4236957 224.25828,23.4275362 C224.510467,23.4236957 231.949973,22.7628599 233.70756,30.4862657 L243.460493,30.4862657 C241.399253,14.5936908 224.909333,15.0164106 224.3046,15.0240918 C223.661267,15.0164106 205.295387,14.9242367 204.93512,33.741029 C204.93512,33.741029 203.741093,52.2464783 224.175933,52.9882222 L224.175933,52.999744 C224.222253,52.999744 224.263427,52.9959034 224.3046,52.9959034 C224.348347,52.9959034 224.386947,52.999744 224.42812,52.999744 L224.42812,52.9882222 C239.11928,52.9882222 242.64732,43.2741159 243.460493,37.6486908 L233.679253,37.6486908 L233.67668,37.6486908 Z" id="Path" fill="#FFFFFF" fill-rule="nonzero"></path>
                <path d="M168.462237,33.741285 C168.086788,14.9283333 148.993169,15.0166667 148.327705,15.0243478 C147.658381,15.0166667 128.568365,14.9244928 128.193173,33.741285 C128.193173,33.741285 126.951025,52.2469903 148.195951,52.9884783 L148.195951,53 C148.242528,53 148.284988,52.9961594 148.327705,52.9961594 C148.370165,52.9961594 148.412625,53 148.455343,53 L148.455343,52.9884783 C169.704128,52.2469903 168.462237,33.741285 168.462237,33.741285 Z M148.428323,44.5619903 L148.420603,44.5735121 C148.374025,44.5735121 148.331565,44.5696715 148.281128,44.5658309 C148.234808,44.5658309 148.192091,44.5696715 148.141911,44.5735121 L148.134191,44.5619903 C137.281415,44.235285 137.672304,34.0603092 137.672304,34.0603092 C137.823101,23.2782657 147.987253,23.4203671 148.281128,23.4242077 C148.57526,23.4165266 158.739155,23.2782657 158.890209,34.0603092 C158.890209,34.0603092 159.280841,44.235285 148.428323,44.5619903 Z" id="Shape" fill="#FFFFFF" fill-rule="nonzero"></path>
                <polygon id="Path" fill="#FFFFFF" points="95.8458587 52.2393092 103.841205 52.2393092 106.49354 52.2393092 114.488887 52.2393092 126.521793 15.70157 115.870252 15.70157 105.167244 48.2110531 94.464236 15.70157 83.8126947 15.70157"></polygon>
                <path d="M45.1069307,1.543657 C43.4237133,1.543657 42.059332,2.90142995 42.059332,4.57617874 L42.059332,12.8344493 C42.0510973,16.926715 41.8580973,19.7047343 37.2595507,19.7047343 L37.2595507,19.7047343 L34.2865787,19.7047343 C32.6033613,19.7047343 31.23898,21.0625072 31.23898,22.737256 L31.23898,31.3703671 C31.2163347,35.2426957 30.8995573,37.8473768 26.4875773,37.8655556 L23.4682853,37.8655556 C21.785068,37.8655556 20.4204293,39.2233285 20.4204293,40.8980773 L20.4204293,49.9674783 C20.4204293,51.6422271 21.785068,52.999744 23.4682853,52.999744 L32.6113387,52.999744 C34.294556,52.999744 35.6591947,51.6422271 35.6591947,49.9674783 L35.6591947,40.8980773 L35.6591947,40.8929565 L35.6599667,40.8927005 C35.6599667,38.020715 35.6599667,34.8471159 41.8838307,34.8389227 L43.4298893,34.8389227 C45.1131067,34.8389227 46.4777453,33.4811498 46.4777453,31.806401 L46.4777453,22.737256 C46.4777453,22.6855362 46.4764587,22.6343285 46.4738853,22.5833768 L46.4787747,22.5800483 C46.4787747,19.7047343 46.4787747,16.6778454 52.726828,16.6778454 L54.2502413,16.6778454 C55.9334587,16.6778454 57.29784,15.3200725 57.29784,13.6453237 L57.29784,4.57617874 C57.29784,2.90142995 55.9334587,1.543657 54.2502413,1.543657 L45.1069307,1.543657 Z" id="Path" fill="#FFFFFF"></path>
                <path d="M20.876424,4.57617874 C20.876424,2.90142995 22.2410627,1.543657 23.92428,1.543657 L33.0673333,1.543657 C34.7505507,1.543657 36.1151893,2.90142995 36.1151893,4.57617874 L36.1151893,13.6453237 C36.1151893,15.3200725 34.7505507,16.6778454 33.0673333,16.6778454 L31.5452067,16.6778454 C31.543148,16.6778454 31.5410893,16.6778454 31.5390307,16.6778454 C25.2974107,16.6798937 25.2974107,19.7055024 25.2974107,22.5800483 L25.2927787,22.5831208 C25.295352,22.6340725 25.2966387,22.6852802 25.2966387,22.737 L25.2966387,31.806401 C25.2966387,33.4811498 23.9322573,34.8389227 22.24904,34.8389227 L13.1057293,34.8389227 C11.422512,34.8389227 10.0578733,33.4811498 10.0578733,31.806401 L10.0578733,22.737 C10.0578733,21.0622512 11.422512,19.7047343 13.1057293,19.7047343 L16.1118973,19.7047343 C20.5377733,19.6914203 20.8537787,17.0839227 20.876424,13.2059614 L20.876424,4.57617874 Z" id="Path" fill="#00FFD2"></path>
                <path d="M3.015625,1.543657 L12.2230374,1.543657 C13.8885211,1.543657 15.2386624,2.88700553 15.2386624,4.5441099 L15.2386624,13.6773669 C15.2386624,15.3344713 13.8885211,16.6778198 12.2230374,16.6778198 L3.015625,16.6778198 C1.3501413,16.6778198 0,15.3344713 0,13.6773669 L0,4.5441099 C0,2.93722081 1.26955436,1.62536018 2.8651149,1.54732904 L3.015625,1.543657 Z" id="Rectangle" fill="#00FFD2" fill-rule="nonzero"></path>
            </g>
        </g>
    </g>
</svg>